<svg xmlns="http://www.w3.org/2000/svg" version="1.1" viewBox="0.00 0.00 1000.00 1000.00">
<g stroke-width="2.00" fill="none" stroke-linecap="butt">
<path stroke="#006dc4" vector-effect="non-scaling-stroke" d="&#10;  M 201.12 101.16&#10;  Q 202.46 91.45 202.35 81.48&#10;  C 202.25 72.55 200.35 62.79 193.35 56.43&#10;  Q 188.78 52.27 182.00 53.08&#10;  C 176.42 53.75 172.53 57.76 173.98 63.59&#10;  Q 175.26 68.77 179.17 74.35&#10;  Q 184.12 81.42 200.68 101.29&#10;  A 0.25 0.25 0.0 0 0 201.12 101.16"/>
<path stroke="#006dc4" vector-effect="non-scaling-stroke" d="&#10;  M 199.11 238.58&#10;  Q 200.74 230.96 203.65 220.42&#10;  C 205.50 213.72 207.45 209.87 211.02 201.76&#10;  C 220.62 179.97 238.14 162.58 259.28 151.50&#10;  Q 266.96 147.47 278.42 142.39&#10;  Q 292.09 136.32 303.20 128.67&#10;  C 312.95 121.95 320.63 112.39 321.15 100.07&#10;  C 321.75 85.67 307.24 78.23 295.00 77.80&#10;  Q 283.99 77.41 272.83 81.10&#10;  Q 264.08 83.99 258.43 87.20&#10;  C 225.34 105.98 205.43 141.58 197.98 178.77&#10;  A 0.45 0.45 0.0 0 1 197.11 178.82&#10;  Q 196.02 175.41 191.80 162.17&#10;  C 183.09 134.91 166.46 107.33 140.41 94.48&#10;  C 132.77 90.72 122.76 88.48 113.18 88.88&#10;  Q 106.92 89.14 106.02 89.27&#10;  C 95.73 90.72 85.69 97.58 84.87 108.56&#10;  C 84.00 120.17 93.88 128.53 104.32 130.95&#10;  Q 107.66 131.72 119.00 134.25&#10;  C 135.70 137.97 151.97 146.07 163.68 158.46&#10;  Q 169.82 164.97 171.49 167.27&#10;  Q 181.16 180.58 186.98 196.52&#10;  Q 194.44 216.96 198.73 238.57&#10;  A 0.20 0.19 46.1 0 0 199.11 238.58"/>
<path stroke="#006dc4" vector-effect="non-scaling-stroke" d="&#10;  M 650.93 170.64&#10;  C 652.00 171.95 653.71 172.84 655.11 171.62&#10;  Q 660.03 167.31 663.96 162.92&#10;  Q 670.14 156.00 663.23 149.81&#10;  Q 655.94 143.27 647.11 140.78&#10;  Q 632.87 136.75 616.81 139.02&#10;  C 596.08 141.95 580.64 157.84 575.17 177.58&#10;  Q 569.38 198.45 573.99 221.27&#10;  C 576.32 232.81 581.65 242.85 589.53 251.22&#10;  C 598.94 261.21 612.44 266.29 626.03 266.62&#10;  C 639.30 266.94 651.61 264.47 661.41 255.92&#10;  C 666.76 251.25 670.16 246.13 666.61 239.32&#10;  Q 663.47 233.28 659.53 231.44&#10;  A 1.46 1.41 53.4 0 0 658.74 231.31&#10;  C 655.54 231.73 652.85 234.62 649.06 237.75&#10;  C 640.43 244.86 629.70 246.75 619.57 242.13&#10;  C 605.11 235.54 599.29 219.87 598.74 204.81&#10;  C 598.04 185.60 604.82 161.48 627.69 160.37&#10;  C 637.23 159.91 644.90 163.32 650.93 170.64"/>
<path stroke="#006dc4" vector-effect="non-scaling-stroke" d="&#10;  M 751.43 172.26&#10;  C 755.15 169.29 762.72 162.53 762.77 157.72&#10;  Q 762.81 154.14 760.68 151.50&#10;  C 752.98 141.91 740.54 138.59 728.24 138.51&#10;  C 717.20 138.44 705.22 141.84 697.09 149.69&#10;  Q 687.74 158.72 686.01 170.76&#10;  C 683.70 186.90 688.83 200.54 704.09 207.28&#10;  C 712.75 211.11 722.94 212.20 729.99 214.54&#10;  Q 734.80 216.14 737.88 218.40&#10;  C 744.42 223.20 745.03 233.17 739.59 238.95&#10;  Q 734.96 243.86 727.78 244.48&#10;  C 715.68 245.52 707.40 238.99 701.42 229.02&#10;  A 2.23 2.23 0.0 0 0 698.57 228.14&#10;  Q 692.08 231.10 686.92 236.98&#10;  Q 683.35 241.06 685.85 246.39&#10;  C 693.40 262.49 714.96 267.84 730.80 266.26&#10;  C 747.99 264.54 761.51 256.33 767.43 239.71&#10;  C 769.26 234.57 769.65 227.60 769.04 222.75&#10;  Q 766.92 206.18 752.25 198.34&#10;  C 743.52 193.68 731.55 191.95 724.78 189.95&#10;  Q 719.38 188.35 717.81 187.09&#10;  Q 709.11 180.07 712.74 170.29&#10;  C 714.79 164.79 720.23 161.07 725.77 160.32&#10;  Q 736.69 158.83 743.91 166.39&#10;  Q 748.64 171.35 749.10 171.96&#10;  A 1.64 1.64 0.0 0 0 751.43 172.26"/>
<path stroke="#006dc4" vector-effect="non-scaling-stroke" d="&#10;  M 386.66 190.78&#10;  Q 386.34 165.49 386.48 148.04&#10;  Q 386.51 144.62 385.40 142.17&#10;  A 2.34 2.31 -9.6 0 0 383.46 140.81&#10;  Q 376.48 140.27 368.69 140.45&#10;  C 364.42 140.55 360.93 140.26 360.74 145.24&#10;  Q 360.46 152.80 360.43 161.50&#10;  Q 360.39 176.90 360.49 258.96&#10;  Q 360.50 263.46 364.36 264.36&#10;  Q 367.35 265.06 378.44 264.87&#10;  Q 382.76 264.79 383.95 264.17&#10;  A 2.77 2.74 2.6 0 0 384.97 263.25&#10;  Q 386.34 261.19 386.37 258.21&#10;  Q 386.53 242.53 386.58 226.56&#10;  Q 386.59 224.06 387.65 222.84&#10;  Q 391.61 218.29 396.86 212.61&#10;  A 1.06 1.05 -39.7 0 1 398.53 212.76&#10;  Q 412.93 235.56 425.07 256.97&#10;  C 426.63 259.72 429.07 264.35 432.32 264.57&#10;  Q 441.60 265.21 453.14 264.44&#10;  C 458.19 264.10 456.63 259.55 455.00 256.79&#10;  Q 444.09 238.28 419.56 197.31&#10;  C 417.62 194.06 416.28 192.85 418.78 189.79&#10;  Q 428.52 177.89 450.40 149.14&#10;  Q 452.59 146.28 453.39 143.01&#10;  A 1.66 1.65 -74.9 0 0 452.26 141.03&#10;  Q 450.31 140.45 448.50 140.40&#10;  Q 446.43 140.35 430.78 140.35&#10;  C 426.60 140.35 425.45 142.60 422.64 146.03&#10;  Q 404.73 167.95 387.56 191.08&#10;  A 0.50 0.50 0.0 0 1 386.66 190.78"/>
<path stroke="#006dc4" vector-effect="non-scaling-stroke" d="&#10;  M 504.64 190.28&#10;  L 504.64 163.72&#10;  A 1.37 1.36 -0.4 0 1 505.99 162.36&#10;  Q 527.02 162.18 553.50 162.33&#10;  C 557.81 162.35 558.35 160.01 558.58 156.27&#10;  Q 558.99 149.38 558.32 143.72&#10;  A 3.26 3.25 -83.0 0 0 556.24 141.05&#10;  Q 554.75 140.49 552.25 140.48&#10;  Q 523.37 140.36 490.00 140.50&#10;  Q 483.72 140.52 481.50 140.69&#10;  Q 478.62 140.90 478.49 143.50&#10;  Q 478.26 147.69 478.26 150.25&#10;  Q 478.18 214.58 478.24 252.50&#10;  C 478.24 255.87 478.02 263.37 481.37 264.04&#10;  Q 485.91 264.95 489.75 264.89&#10;  Q 498.00 264.76 551.50 264.80&#10;  Q 553.98 264.80 556.48 263.98&#10;  A 1.75 1.71 -82.2 0 0 557.42 263.25&#10;  Q 558.40 261.72 558.51 260.47&#10;  Q 559.10 254.02 558.55 246.50&#10;  Q 558.22 242.13 554.14 242.10&#10;  Q 537.30 241.96 505.41 242.05&#10;  A 0.70 0.70 0.0 0 1 504.70 241.35&#10;  L 504.70 212.09&#10;  A 0.60 0.60 0.0 0 1 505.30 211.49&#10;  Q 529.89 211.61 541.00 211.59&#10;  Q 542.84 211.58 544.55 210.79&#10;  A 1.08 1.08 0.0 0 0 545.14 210.04&#10;  C 545.94 206.32 546.46 194.49 544.48 191.90&#10;  A 1.64 1.57 -11.4 0 0 543.55 191.31&#10;  Q 541.60 190.88 539.00 190.89&#10;  Q 538.90 190.89 505.47 191.10&#10;  A 0.83 0.82 -0.0 0 1 504.64 190.28"/>
<path stroke="#006dc4" vector-effect="non-scaling-stroke" d="&#10;  M 245.25 199.35&#10;  Q 258.81 197.25 269.95 197.00&#10;  C 276.38 196.85 282.08 195.31 284.73 190.04&#10;  Q 288.27 182.98 283.10 178.13&#10;  C 277.72 173.08 268.23 176.93 263.26 180.83&#10;  Q 253.18 188.74 244.78 198.50&#10;  A 0.52 0.52 0.0 0 0 245.25 199.35"/>
<path stroke="#006dc4" vector-effect="non-scaling-stroke" d="&#10;  M 208.45 365.61&#10;  Q 209.55 361.02 210.53 352.94&#10;  C 212.70 335.06 216.78 317.04 222.09 300.78&#10;  C 224.72 292.71 228.06 285.32 231.65 276.92&#10;  Q 232.67 274.55 232.76 272.66&#10;  A 1.43 1.42 14.3 0 0 231.96 271.32&#10;  Q 227.56 269.14 222.68 270.47&#10;  C 216.07 272.27 211.79 277.44 207.76 280.50&#10;  C 205.72 282.04 204.12 281.54 202.31 279.80&#10;  C 196.34 274.05 188.28 267.85 179.52 271.55&#10;  C 173.45 274.11 176.55 281.07 178.56 285.20&#10;  C 191.12 311.15 200.15 338.04 208.06 365.62&#10;  A 0.20 0.20 0.0 0 0 208.45 365.61"/>
<path stroke="#006dc4" vector-effect="non-scaling-stroke" d="&#10;  M 962.66 390.63&#10;  Q 951.52 391.93 937.40 395.23&#10;  Q 901.19 403.69 872.71 425.05&#10;  C 840.00 449.57 816.37 485.28 803.70 524.68&#10;  C 797.11 545.18 793.35 561.80 791.76 581.23&#10;  Q 791.61 583.07 790.38 584.71&#10;  A 0.61 0.60 -55.2 0 1 789.57 584.86&#10;  Q 787.41 583.46 786.98 583.00&#10;  Q 768.18 562.83 750.80 546.95&#10;  Q 740.55 537.58 740.37 537.43&#10;  Q 700.06 502.44 668.29 480.01&#10;  Q 644.94 463.54 626.91 452.63&#10;  Q 596.35 434.15 558.74 420.51&#10;  Q 557.54 420.07 556.05 418.89&#10;  A 1.05 1.04 -69.3 0 1 555.65 417.99&#10;  Q 555.76 416.11 556.64 414.43&#10;  Q 573.72 381.84 582.71 346.81&#10;  A 0.43 0.42 -69.8 0 0 582.49 346.32&#10;  Q 582.26 346.20 581.76 346.29&#10;  C 565.85 349.25 549.85 353.96 533.93 361.92&#10;  C 515.74 371.01 498.78 385.66 489.16 403.67&#10;  Q 488.01 405.82 485.46 405.09&#10;  Q 474.47 401.96 465.08 400.19&#10;  Q 443.79 396.16 424.01 394.08&#10;  Q 375.26 388.96 325.44 390.64&#10;  C 314.76 391.00 304.96 392.20 291.78 393.59&#10;  C 261.94 396.72 232.66 403.96 206.36 416.91&#10;  C 183.96 427.93 163.48 441.17 145.67 458.44&#10;  Q 132.62 471.10 123.70 482.84&#10;  Q 113.86 495.78 106.59 510.80&#10;  Q 96.16 532.37 96.31 556.95&#10;  Q 96.34 562.29 100.73 566.26&#10;  Q 108.03 572.86 114.73 576.25&#10;  C 120.68 579.25 129.32 582.36 136.62 583.58&#10;  Q 164.33 588.23 188.00 577.78&#10;  Q 198.77 573.03 208.52 562.70&#10;  A 0.95 0.95 0.0 0 0 208.71 561.70&#10;  Q 208.47 561.09 207.58 560.82&#10;  A 0.70 0.70 0.0 0 1 207.30 559.65&#10;  Q 209.70 557.26 212.19 556.71&#10;  C 217.37 555.59 217.93 558.77 218.77 562.95&#10;  Q 219.39 566.01 218.87 568.29&#10;  A 1.28 1.28 0.0 0 1 216.71 568.91&#10;  Q 215.13 567.34 214.20 564.82&#10;  A 0.78 0.77 54.2 0 0 212.87 564.60&#10;  C 200.90 579.42 181.17 588.12 162.50 589.74&#10;  Q 146.92 591.09 134.24 588.52&#10;  Q 113.48 584.31 98.39 570.16&#10;  A 0.41 0.41 0.0 0 0 97.70 570.52&#10;  Q 101.04 592.04 112.26 610.75&#10;  Q 124.02 630.37 140.61 646.12&#10;  Q 157.41 662.07 174.37 673.34&#10;  Q 221.04 704.32 275.77 717.94&#10;  Q 303.55 724.85 336.93 731.59&#10;  A 0.52 0.52 0.0 0 0 337.55 731.04&#10;  L 336.25 713.71&#10;  A 0.69 0.69 0.0 0 1 337.56 713.37&#10;  C 348.73 736.93 360.21 762.03 380.43 779.12&#10;  Q 408.71 803.04 448.45 799.59&#10;  A 0.87 0.87 0.0 0 0 449.17 798.36&#10;  Q 431.17 758.68 413.70 722.89&#10;  Q 412.34 720.11 411.05 716.92&#10;  C 409.53 713.16 407.92 710.27 408.06 707.83&#10;  A 0.88 0.88 0.0 0 1 409.61 707.31&#10;  Q 413.24 711.54 417.30 719.22&#10;  Q 420.74 725.72 423.79 732.33&#10;  A 1.43 1.42 79.8 0 0 424.96 733.15&#10;  Q 468.62 736.94 514.02 733.98&#10;  Q 555.61 731.27 595.44 722.14&#10;  Q 632.25 713.70 667.23 696.99&#10;  Q 717.89 672.79 756.27 634.29&#10;  Q 764.68 625.86 777.91 609.71&#10;  C 782.86 603.67 787.36 596.67 792.09 591.67&#10;  A 0.93 0.93 0.0 0 1 793.55 591.80&#10;  Q 794.66 593.49 795.17 594.84&#10;  C 797.78 601.68 801.74 610.61 805.44 616.46&#10;  C 815.98 633.10 828.90 645.51 845.86 654.91&#10;  Q 856.98 661.08 871.68 663.51&#10;  Q 899.41 668.09 926.73 659.23&#10;  A 0.28 0.28 0.0 0 0 926.77 658.71&#10;  C 916.95 653.57 907.31 645.82 900.91 636.20&#10;  Q 895.36 627.87 891.87 619.12&#10;  C 888.29 610.13 886.63 597.74 881.96 588.58&#10;  C 875.36 575.63 862.42 568.97 848.13 564.41&#10;  Q 846.34 563.84 845.63 562.65&#10;  A 1.87 1.86 67.4 0 1 846.76 559.88&#10;  C 870.80 553.76 894.10 536.83 906.92 515.41&#10;  Q 915.37 501.30 919.79 488.04&#10;  Q 923.47 477.05 927.43 462.98&#10;  C 932.59 444.61 938.43 430.27 947.35 415.20&#10;  C 952.15 407.10 958.42 399.05 963.04 391.22&#10;  A 0.39 0.39 0.0 0 0 962.66 390.63"/>
<path stroke="#006dc4" vector-effect="non-scaling-stroke" d="&#10;  M 276.74 723.25&#10;  A 0.34 0.34 0.0 0 0 276.32 723.66&#10;  C 278.70 733.48 282.70 741.57 288.43 750.17&#10;  Q 305.91 776.39 338.32 781.37&#10;  Q 339.45 781.54 340.50 781.43&#10;  A 0.91 0.91 0.0 0 0 341.32 780.44&#10;  C 340.03 766.64 337.99 752.01 337.74 738.18&#10;  A 1.87 1.87 0.0 0 0 336.21 736.38&#10;  Q 303.77 730.28 276.74 723.25"/>
<path stroke="#006dc4" vector-effect="non-scaling-stroke" d="&#10;  M 505.79 472.86&#10;  Q 507.23 473.51 508.67 474.32&#10;  C 520.98 481.32 537.73 477.49 540.94 462.22&#10;  C 543.40 450.59 534.63 439.95 523.02 440.05&#10;  C 515.93 440.11 510.58 443.38 505.35 447.70&#10;  A 0.92 0.92 0.0 0 1 504.00 447.50&#10;  C 501.87 444.24 500.77 442.44 498.31 440.06&#10;  C 481.41 423.75 457.23 416.97 434.32 423.31&#10;  C 420.96 427.01 409.75 433.62 402.21 444.73&#10;  Q 393.84 457.07 396.88 470.84&#10;  C 401.04 489.65 423.55 501.87 441.37 502.91&#10;  Q 449.28 503.37 453.26 502.98&#10;  Q 481.15 500.26 499.72 479.68&#10;  Q 501.36 477.86 502.37 476.43&#10;  Q 504.80 472.99 504.82 472.98&#10;  A 0.95 0.95 0.0 0 1 505.79 472.86"/>
<path stroke="#006dc4" vector-effect="non-scaling-stroke" d="&#10;  M 205.81 475.60&#10;  A 10.35 5.04 -20.0 0 0 204.42 476.05"/>
<path stroke="#006dc4" vector-effect="non-scaling-stroke" d="&#10;  M 201.52 477.30&#10;  A 5.53 1.73 -31.3 0 0 200.84 477.66"/>
<path stroke="#006dc4" vector-effect="non-scaling-stroke" d="&#10;  M 203.22 525.07&#10;  A 13.55 8.17 22.8 0 0 205.02 525.71"/>
<path stroke="#006dc4" vector-effect="non-scaling-stroke" d="&#10;  M 641.77 510.21&#10;  C 640.16 508.90 638.42 506.57 636.79 504.96&#10;  Q 619.04 487.39 594.97 482.85&#10;  C 571.91 478.50 535.28 485.67 527.20 511.60&#10;  Q 523.20 524.46 529.97 535.75&#10;  C 539.51 551.66 560.09 558.81 577.62 559.73&#10;  Q 603.35 561.07 625.82 546.93&#10;  C 630.79 543.81 635.44 539.64 640.13 535.36&#10;  A 0.96 0.95 -47.0 0 1 641.36 535.31&#10;  C 648.55 540.88 659.00 544.83 667.90 541.15&#10;  C 676.00 537.80 680.83 531.70 681.11 522.50&#10;  C 681.64 504.91 660.69 497.64 647.83 506.86&#10;  Q 643.27 510.14 642.76 510.35&#10;  A 0.94 0.94 0.0 0 1 641.77 510.21"/>
<path stroke="#7d9e86" vector-effect="non-scaling-stroke" d="&#10;  M 422.74 513.86&#10;  Q 429.11 509.73 430.04 509.03&#10;  Q 432.01 507.55 432.43 504.62&#10;  A 0.96 0.96 0.0 0 0 430.90 503.71&#10;  L 421.62 510.63&#10;  A 2.15 2.14 -27.6 0 0 420.86 513.03&#10;  L 420.91 513.19&#10;  A 1.23 1.22 64.9 0 0 422.74 513.86"/>
<path stroke="#7d9e86" vector-effect="non-scaling-stroke" d="&#10;  M 414.6897 517.5659&#10;  A 1.65 1.65 0.0 0 0 412.4039 517.0967&#10;  L 403.2874 523.1079&#10;  A 1.65 1.65 0.0 0 0 402.8182 525.3937&#10;  L 402.9503 525.5941&#10;  A 1.65 1.65 0.0 0 0 405.2361 526.0633&#10;  L 414.3526 520.0521&#10;  A 1.65 1.65 0.0 0 0 414.8218 517.7663&#10;  L 414.6897 517.5659"/>
<path stroke="#7d9e86" vector-effect="non-scaling-stroke" d="&#10;  M 517.1027 519.3645&#10;  A 1.64 1.64 0.0 0 0 514.8920 518.6632&#10;  L 506.7773 522.8694&#10;  A 1.64 1.64 0.0 0 0 506.0760 525.0802&#10;  L 506.1773 525.2755&#10;  A 1.64 1.64 0.0 0 0 508.3880 525.9768&#10;  L 516.5027 521.7706&#10;  A 1.64 1.64 0.0 0 0 517.2040 519.5598&#10;  L 517.1027 519.3645"/>
<path stroke="#7d9e86" vector-effect="non-scaling-stroke" d="&#10;  M 385.71 537.40&#10;  Q 390.14 535.25 394.40 532.67&#10;  Q 395.68 531.89 395.94 530.25&#10;  A 1.16 1.16 0.0 0 0 394.42 528.97&#10;  Q 387.74 531.21 383.00 536.34"/>
<path stroke="#006dc4" vector-effect="non-scaling-stroke" d="&#10;  M 383.00 536.34&#10;  Q 365.83 527.73 350.78 523.44&#10;  C 320.40 514.77 289.99 520.38 265.61 540.84&#10;  C 261.24 544.51 256.94 549.82 253.91 554.15&#10;  C 245.41 566.28 242.61 581.35 247.71 595.31&#10;  C 251.41 605.41 257.58 612.86 265.97 620.06&#10;  Q 273.30 626.34 282.35 630.39&#10;  Q 297.87 637.33 314.64 639.31&#10;  Q 326.30 640.69 340.27 638.61&#10;  Q 354.06 636.56 365.19 632.42&#10;  Q 370.25 630.54 379.18 626.85&#10;  C 382.80 625.35 385.64 623.33 389.08 621.87&#10;  Q 392.17 620.55 396.51 618.13&#10;  Q 411.23 609.93 422.78 600.29&#10;  A 0.43 0.43 0.0 0 1 423.39 600.34&#10;  C 431.57 609.96 447.99 618.70 460.15 610.06&#10;  C 467.37 604.93 466.22 596.80 463.33 589.64&#10;  A 2.65 2.65 0.0 0 1 463.64 587.11&#10;  Q 467.16 582.27 469.17 577.88&#10;  C 475.22 564.76 468.53 551.39 452.59 556.61&#10;  Q 447.55 558.26 442.31 561.56&#10;  Q 434.60 566.42 428.69 570.27&#10;  A 0.63 0.62 55.9 0 1 427.83 570.10&#10;  Q 426.14 567.64 423.65 565.34&#10;  Q 406.85 549.83 385.87 538.12&#10;  A 0.45 0.44 20.6 0 1 385.65 537.65&#10;  Q 385.67 537.54 385.71 537.40"/>
<path stroke="#7d684a" vector-effect="non-scaling-stroke" d="&#10;  M 383.00 536.34&#10;  L 385.71 537.40"/>
<path stroke="#7d9e86" vector-effect="non-scaling-stroke" d="&#10;  M 497.6936 528.3703&#10;  A 1.32 1.32 0.0 0 0 495.9665 527.6620&#10;  L 486.4274 531.6522&#10;  A 1.32 1.32 0.0 0 0 485.7191 533.3794&#10;  L 486.0664 534.2097&#10;  A 1.32 1.32 0.0 0 0 487.7935 534.9180&#10;  L 497.3326 530.9278&#10;  A 1.32 1.32 0.0 0 0 498.0409 529.2006&#10;  L 497.6936 528.3703"/>
<path stroke="#7d9e86" vector-effect="non-scaling-stroke" d="&#10;  M 478.0935 535.8193&#10;  A 1.64 1.64 0.0 0 0 476.0591 534.7055&#10;  L 466.8642 537.3943&#10;  A 1.64 1.64 0.0 0 0 465.7504 539.4287&#10;  L 465.8065 539.6207&#10;  A 1.64 1.64 0.0 0 0 467.8409 540.7345&#10;  L 477.0358 538.0457&#10;  A 1.64 1.64 0.0 0 0 478.1496 536.0113&#10;  L 478.0935 535.8193"/>
<path stroke="#7d9e86" vector-effect="non-scaling-stroke" d="&#10;  M 456.8292 541.5008&#10;  A 1.79 1.79 0.0 0 0 454.6369 540.2350&#10;  L 445.6151 542.6524&#10;  A 1.79 1.79 0.0 0 0 444.3494 544.8447&#10;  L 444.3908 544.9992&#10;  A 1.79 1.79 0.0 0 0 446.5831 546.2650&#10;  L 455.6049 543.8476&#10;  A 1.79 1.79 0.0 0 0 456.8706 541.6553&#10;  L 456.8292 541.5008"/>
<path stroke="#7d9e86" vector-effect="non-scaling-stroke" d="&#10;  M 435.5917 546.5723&#10;  A 1.74 1.74 0.0 0 0 433.5164 545.2501&#10;  L 423.6558 547.4362&#10;  A 1.74 1.74 0.0 0 0 422.3336 549.5115&#10;  L 422.3683 549.6677&#10;  A 1.74 1.74 0.0 0 0 424.4436 550.9899&#10;  L 434.3042 548.8038&#10;  A 1.74 1.74 0.0 0 0 435.6264 546.7285&#10;  L 435.5917 546.5723"/>
<path stroke="#7d9e86" vector-effect="non-scaling-stroke" d="&#10;  M 636.16 593.10&#10;  L 626.69 593.74&#10;  A 1.63 1.62 -2.1 0 0 625.18 595.36&#10;  L 625.18 595.98&#10;  A 1.79 1.79 0.0 0 0 627.37 597.73&#10;  L 634.48 596.12"/>
<path stroke="#006dc4" vector-effect="non-scaling-stroke" d="&#10;  M 634.48 596.12&#10;  Q 634.72 595.67 634.83 596.28&#10;  A 0.80 0.76 49.3 0 1 634.81 596.67&#10;  C 629.81 613.22 637.69 628.69 652.22 637.04&#10;  Q 661.11 642.15 671.99 644.01&#10;  C 696.33 648.18 720.93 639.09 737.58 621.35&#10;  A 0.97 0.97 0.0 0 1 738.85 621.22&#10;  Q 746.70 626.76 755.69 625.00&#10;  C 765.48 623.08 772.84 613.94 771.13 603.89&#10;  C 768.89 590.71 755.41 585.44 744.30 592.06&#10;  Q 741.01 594.02 738.86 595.78&#10;  A 0.88 0.88 0.0 0 1 737.58 595.59&#10;  Q 731.82 587.18 723.24 581.26&#10;  C 700.58 565.65 668.03 563.01 645.85 581.61&#10;  Q 639.63 586.83 636.16 593.10"/>
<path stroke="#7d684a" vector-effect="non-scaling-stroke" d="&#10;  M 634.48 596.12&#10;  Q 635.92 594.56 636.16 593.10"/>
<path stroke="#7d9e86" vector-effect="non-scaling-stroke" d="&#10;  M 479.6300 591.5575&#10;  A 1.63 1.63 0.0 0 0 478.3310 589.6532&#10;  L 468.9765 587.8856&#10;  A 1.63 1.63 0.0 0 0 467.0722 589.1846&#10;  L 467.0500 589.3025&#10;  A 1.63 1.63 0.0 0 0 468.3490 591.2068&#10;  L 477.7035 592.9744&#10;  A 1.63 1.63 0.0 0 0 479.6078 591.6754&#10;  L 479.6300 591.5575"/>
<path stroke="#7d9e86" vector-effect="non-scaling-stroke" d="&#10;  M 502.8387 595.6708&#10;  A 1.54 1.54 0.0 0 0 501.5989 593.8803&#10;  L 491.9962 592.1352&#10;  A 1.54 1.54 0.0 0 0 490.2056 593.3750&#10;  L 490.1413 593.7292&#10;  A 1.54 1.54 0.0 0 0 491.3811 595.5197&#10;  L 500.9838 597.2648&#10;  A 1.54 1.54 0.0 0 0 502.7744 596.0250&#10;  L 502.8387 595.6708"/>
<path stroke="#7d9e86" vector-effect="non-scaling-stroke" d="&#10;  M 525.2632 598.4350&#10;  A 1.71 1.71 0.0 0 0 523.8623 596.4637&#10;  L 514.7714 594.9261&#10;  A 1.71 1.71 0.0 0 0 512.8002 596.3270&#10;  L 512.7768 596.4650&#10;  A 1.71 1.71 0.0 0 0 514.1777 598.4363&#10;  L 523.2686 599.9739&#10;  A 1.71 1.71 0.0 0 0 525.2398 598.5730&#10;  L 525.2632 598.4350"/>
<path stroke="#7d9e86" vector-effect="non-scaling-stroke" d="&#10;  M 616.0535 596.9196&#10;  A 1.29 1.29 0.0 0 0 614.6061 595.8091&#10;  L 605.3857 597.0229&#10;  A 1.29 1.29 0.0 0 0 604.2751 598.4703&#10;  L 604.4265 599.6204&#10;  A 1.29 1.29 0.0 0 0 605.8739 600.7309&#10;  L 615.0943 599.5171&#10;  A 1.29 1.29 0.0 0 0 616.2049 598.0697&#10;  L 616.0535 596.9196"/>
<path stroke="#7d9e86" vector-effect="non-scaling-stroke" d="&#10;  M 548.9130 600.0682&#10;  A 1.23 1.23 0.0 0 0 547.7902 598.7396&#10;  L 537.6858 597.8911&#10;  A 1.23 1.23 0.0 0 0 536.3572 599.0139&#10;  L 536.3070 599.6118&#10;  A 1.23 1.23 0.0 0 0 537.4298 600.9404&#10;  L 547.5342 601.7889&#10;  A 1.23 1.23 0.0 0 0 548.8628 600.6661&#10;  L 548.9130 600.0682"/>
<path stroke="#7d9e86" vector-effect="non-scaling-stroke" d="&#10;  M 594.7182 599.0517&#10;  A 1.15 1.15 0.0 0 0 593.4926 597.9826&#10;  L 583.1965 598.6845&#10;  A 1.15 1.15 0.0 0 0 582.1274 599.9101&#10;  L 582.1818 600.7083&#10;  A 1.15 1.15 0.0 0 0 583.4074 601.7774&#10;  L 593.7035 601.0755&#10;  A 1.15 1.15 0.0 0 0 594.7726 599.8499&#10;  L 594.7182 599.0517"/>
<path stroke="#7d9e86" vector-effect="non-scaling-stroke" d="&#10;  M 571.7298 600.0472&#10;  A 1.45 1.45 0.0 0 0 570.2747 598.6022&#10;  L 560.0948 598.6378&#10;  A 1.45 1.45 0.0 0 0 558.6499 600.0928&#10;  L 558.6502 600.1928&#10;  A 1.45 1.45 0.0 0 0 560.1053 601.6378&#10;  L 570.2852 601.6022&#10;  A 1.45 1.45 0.0 0 0 571.7301 600.1472&#10;  L 571.7298 600.0472"/>
<path stroke="#7d9e86" vector-effect="non-scaling-stroke" d="&#10;  M 400.0771 632.6048&#10;  A 1.59 1.59 0.0 0 0 399.7758 630.3764&#10;  L 390.5324 623.3349&#10;  A 1.59 1.59 0.0 0 0 388.3041 623.6361&#10;  L 388.1829 623.7952&#10;  A 1.59 1.59 0.0 0 0 388.4842 626.0236&#10;  L 397.7276 633.0651&#10;  A 1.59 1.59 0.0 0 0 399.9559 632.7639&#10;  L 400.0771 632.6048"/>
<path stroke="#006dc4" vector-effect="non-scaling-stroke" d="&#10;  M 558.44 676.92&#10;  Q 559.75 677.92 562.41 679.59&#10;  C 574.63 687.25 592.53 679.61 595.61 665.30&#10;  C 599.60 646.74 578.09 634.52 564.06 647.08&#10;  Q 562.61 648.37 559.61 650.91&#10;  A 1.56 1.55 49.1 0 1 557.44 650.75&#10;  C 550.08 642.44 542.60 637.69 532.53 632.86&#10;  Q 517.39 625.59 500.11 625.53&#10;  Q 476.10 625.45 458.34 639.15&#10;  C 439.79 653.45 442.55 677.62 460.68 690.84&#10;  Q 477.58 703.15 498.49 703.26&#10;  C 521.13 703.38 542.48 693.55 557.60 677.00&#10;  A 0.63 0.63 0.0 0 1 558.44 676.92"/>
<path stroke="#7d9e86" vector-effect="non-scaling-stroke" d="&#10;  M 416.3528 645.0227&#10;  A 1.79 1.79 0.0 0 0 415.9263 642.5274&#10;  L 407.9118 636.8529&#10;  A 1.79 1.79 0.0 0 0 405.4165 637.2794&#10;  L 405.3472 637.3773&#10;  A 1.79 1.79 0.0 0 0 405.7737 639.8726&#10;  L 413.7882 645.5471&#10;  A 1.79 1.79 0.0 0 0 416.2835 645.1206&#10;  L 416.3528 645.0227"/>
<path stroke="#7d9e86" vector-effect="non-scaling-stroke" d="&#10;  M 433.7581 657.2855&#10;  A 1.71 1.71 0.0 0 0 433.4090 654.8925&#10;  L 425.0866 648.6892&#10;  A 1.71 1.71 0.0 0 0 422.6936 649.0383&#10;  L 422.6219 649.1345&#10;  A 1.71 1.71 0.0 0 0 422.9710 651.5275&#10;  L 431.2934 657.7308&#10;  A 1.71 1.71 0.0 0 0 433.6864 657.3817&#10;  L 433.7581 657.2855"/>
<path stroke="#7d684a" vector-effect="non-scaling-stroke" d="&#10;  M 503.99 466.76&#10;  Q 506.26 466.90 506.97 467.28&#10;  C 513.61 470.90 518.76 474.27 526.65 471.60&#10;  Q 532.46 469.64 534.71 463.69&#10;  C 536.68 458.49 536.14 452.31 532.06 448.63&#10;  C 526.81 443.89 519.43 444.50 513.58 448.31&#10;  Q 511.98 449.35 504.85 453.92&#10;  A 1.92 1.91 -33.9 0 1 502.26 453.42&#10;  C 497.20 446.35 490.77 439.41 483.25 435.05&#10;  C 471.04 427.98 457.68 425.49 443.77 427.04&#10;  Q 426.76 428.94 413.49 439.76&#10;  C 399.13 451.47 396.79 470.45 410.35 483.75&#10;  Q 415.34 488.65 419.95 491.11&#10;  C 443.48 503.67 471.82 498.06 491.24 480.74&#10;  Q 496.63 475.93 500.46 469.73&#10;  Q 500.90 469.03 503.03 467.10&#10;  A 1.33 1.32 -64.4 0 1 503.99 466.76"/>
<path stroke="#7d684a" vector-effect="non-scaling-stroke" d="&#10;  M 429.5471 445.2019&#10;  A 9.91 9.31 -76.3 0 0 418.1549 452.6250&#10;  A 9.91 9.31 -76.3 0 0 424.8529 464.4581&#10;  A 9.91 9.31 -76.3 0 0 436.2451 457.0350&#10;  A 9.91 9.31 -76.3 0 0 429.5471 445.2019"/>
<path stroke="#006dc4" vector-effect="non-scaling-stroke" d="&#10;  M 649.61 511.62&#10;  C 647.70 513.01 641.56 518.46 639.01 515.20&#10;  Q 634.96 510.04 630.01 505.74&#10;  Q 603.03 482.30 567.70 488.15&#10;  C 555.23 490.21 544.33 494.98 536.43 504.82&#10;  C 530.19 512.60 529.32 523.03 533.67 531.76&#10;  C 540.71 545.88 559.01 552.18 573.49 554.04&#10;  C 590.56 556.23 609.40 551.18 623.77 542.03&#10;  C 628.91 538.75 633.34 534.50 637.81 530.84&#10;  C 641.64 527.70 645.50 531.64 648.87 533.87&#10;  C 659.09 540.64 674.82 537.26 675.84 523.35&#10;  C 676.93 508.55 659.19 504.65 649.61 511.62"/>
<path stroke="#006dc4" vector-effect="non-scaling-stroke" d="&#10;  M 555.7235 509.3715&#10;  A 8.15 7.65 -91.1 0 0 548.2314 517.6669&#10;  A 8.15 7.65 -91.1 0 0 556.0365 525.6685&#10;  A 8.15 7.65 -91.1 0 0 563.5286 517.3731&#10;  A 8.15 7.65 -91.1 0 0 555.7235 509.3715"/>
<path stroke="#7f349f" vector-effect="non-scaling-stroke" d="&#10;  M 457.35 588.88&#10;  Q 457.33 586.80 458.51 585.25&#10;  Q 462.09 580.56 464.43 575.43&#10;  C 466.35 571.21 467.87 562.95 461.89 561.11&#10;  C 457.68 559.82 452.01 562.08 448.05 564.06&#10;  Q 445.97 565.09 433.10 573.84&#10;  C 430.64 575.51 427.15 577.54 424.89 575.10&#10;  C 419.47 569.27 414.14 563.40 407.28 558.48&#10;  Q 393.98 548.93 383.33 542.95&#10;  Q 368.04 534.37 351.99 529.55&#10;  C 319.88 519.89 288.22 525.52 264.15 549.66&#10;  Q 254.03 559.82 250.88 574.37&#10;  C 248.93 583.36 251.84 593.83 256.58 601.40&#10;  C 268.16 619.85 290.34 630.32 311.36 633.32&#10;  Q 319.92 634.54 325.25 634.46&#10;  Q 340.60 634.21 355.86 629.59&#10;  Q 379.63 622.40 399.53 610.23&#10;  Q 411.72 602.77 419.79 596.26&#10;  Q 422.50 594.07 424.76 594.07&#10;  A 1.23 1.22 71.3 0 1 425.74 594.56&#10;  Q 432.64 603.96 443.89 607.66&#10;  Q 448.90 609.30 454.41 607.12&#10;  Q 461.94 604.15 460.02 595.94&#10;  Q 459.76 594.85 457.54 589.78&#10;  A 2.23 2.23 0.0 0 1 457.35 588.88"/>
<path stroke="#7f349f" vector-effect="non-scaling-stroke" d="&#10;  M 293.1510 559.0518&#10;  A 10.38 9.88 -82.8 0 0 282.0479 568.1117&#10;  A 10.38 9.88 -82.8 0 0 290.5490 579.6482&#10;  A 10.38 9.88 -82.8 0 0 301.6521 570.5883&#10;  A 10.38 9.88 -82.8 0 0 293.1510 559.0518"/>
<path stroke="#006dc4" vector-effect="non-scaling-stroke" d="&#10;  M 737.03 601.67&#10;  A 2.28 2.28 0.0 0 1 735.41 600.92&#10;  Q 734.87 600.34 731.99 596.59&#10;  C 719.26 579.95 696.20 572.34 675.78 574.37&#10;  Q 658.77 576.05 646.86 587.39&#10;  C 637.30 596.49 635.81 610.25 642.79 621.40&#10;  Q 646.81 627.83 654.12 632.17&#10;  C 676.85 645.65 706.47 640.27 726.52 624.53&#10;  Q 727.57 623.71 734.59 616.90&#10;  C 736.43 615.13 738.29 614.02 740.40 615.79&#10;  Q 748.07 622.23 756.80 619.12&#10;  C 762.08 617.24 765.36 613.58 765.72 608.01&#10;  Q 766.05 602.93 763.97 599.58&#10;  C 759.61 592.52 751.30 593.55 745.34 597.59&#10;  C 742.36 599.61 739.76 601.76 737.03 601.67"/>
<path stroke="#006dc4" vector-effect="non-scaling-stroke" d="&#10;  M 668.99 600.78&#10;  A 6.84 6.84 0.0 0 0 662.15 593.94&#10;  A 6.84 6.84 0.0 0 0 655.31 600.78&#10;  A 6.84 6.84 0.0 0 0 662.15 607.62&#10;  A 6.84 6.84 0.0 0 0 668.99 600.78"/>
<path stroke="#006dc4" vector-effect="non-scaling-stroke" d="&#10;  M 559.40 671.59&#10;  C 561.58 672.66 564.55 675.32 567.60 676.54&#10;  C 575.45 679.66 584.90 675.61 588.77 668.57&#10;  C 594.17 658.74 588.41 646.99 576.71 647.26&#10;  C 570.65 647.40 566.88 651.23 562.34 655.07&#10;  Q 560.54 656.59 558.69 657.11&#10;  A 3.10 3.09 -31.2 0 1 555.74 656.39&#10;  Q 553.14 653.97 550.95 651.74&#10;  C 541.13 641.75 527.55 635.03 514.99 632.37&#10;  Q 494.44 628.01 473.29 636.03&#10;  C 463.05 639.91 451.57 649.60 450.97 661.42&#10;  C 450.19 676.87 460.98 686.57 473.99 692.72&#10;  Q 478.93 695.06 483.71 696.07&#10;  C 507.45 701.13 532.16 694.05 550.10 677.84&#10;  Q 552.48 675.70 556.20 672.09&#10;  A 2.81 2.80 36.0 0 1 559.40 671.59"/>
<path stroke="#006dc4" vector-effect="non-scaling-stroke" d="&#10;  M 477.1103 652.6744&#10;  A 8.20 7.76 -81.3 0 0 468.1993 659.6062&#10;  A 8.20 7.76 -81.3 0 0 474.6297 668.8856&#10;  A 8.20 7.76 -81.3 0 0 483.5407 661.9538&#10;  A 8.20 7.76 -81.3 0 0 477.1103 652.6744"/>
</g>
<path fill="#003788" d="&#10;  M 201.99 109.88&#10;  Q 200.31 109.31 198.28 106.76&#10;  Q 195.00 102.65 180.08 84.34&#10;  Q 174.90 77.98 170.65 70.47&#10;  C 165.97 62.20 167.69 52.75 176.69 48.60&#10;  Q 182.39 45.97 188.13 47.45&#10;  C 200.62 50.68 206.60 64.07 207.71 75.69&#10;  Q 208.88 87.98 207.36 99.89&#10;  Q 206.78 104.38 205.22 108.38&#10;  A 2.58 2.57 -69.8 0 1 201.99 109.88&#10;  Z&#10;  M 201.12 101.16&#10;  Q 202.46 91.45 202.35 81.48&#10;  C 202.25 72.55 200.35 62.79 193.35 56.43&#10;  Q 188.78 52.27 182.00 53.08&#10;  C 176.42 53.75 172.53 57.76 173.98 63.59&#10;  Q 175.26 68.77 179.17 74.35&#10;  Q 184.12 81.42 200.68 101.29&#10;  A 0.25 0.25 0.0 0 0 201.12 101.16&#10;  Z"/>
<path fill="#00a2ff" d="&#10;  M 200.68 101.29&#10;  Q 184.12 81.42 179.17 74.35&#10;  Q 175.26 68.77 173.98 63.59&#10;  C 172.53 57.76 176.42 53.75 182.00 53.08&#10;  Q 188.78 52.27 193.35 56.43&#10;  C 200.35 62.79 202.25 72.55 202.35 81.48&#10;  Q 202.46 91.45 201.12 101.16&#10;  A 0.25 0.25 0.0 0 1 200.68 101.29&#10;  Z"/>
<path fill="#003788" d="&#10;  M 196.92 160.13&#10;  A 0.54 0.54 0.0 0 0 197.69 159.73&#10;  Q 197.98 157.98 198.18 157.35&#10;  Q 203.29 140.56 213.78 123.53&#10;  Q 215.03 121.51 220.68 113.60&#10;  C 230.77 99.47 244.14 88.33 259.54 80.27&#10;  Q 270.94 74.31 284.99 72.29&#10;  C 297.61 70.46 311.66 73.52 320.47 83.20&#10;  Q 329.96 93.62 325.94 107.74&#10;  C 319.88 129.03 300.24 138.77 281.74 146.98&#10;  Q 268.93 152.67 258.28 158.54&#10;  C 243.60 166.64 229.69 179.68 221.33 194.08&#10;  C 211.04 211.82 205.65 231.05 202.38 251.63&#10;  Q 201.85 254.92 200.30 257.37&#10;  A 1.10 1.10 0.0 0 1 199.47 257.88&#10;  C 197.29 258.10 196.21 256.69 195.80 254.47&#10;  Q 193.22 240.51 190.06 225.93&#10;  Q 189.22 222.07 185.17 207.29&#10;  C 177.86 180.67 160.51 155.56 134.41 145.11&#10;  Q 124.16 141.01 117.51 139.73&#10;  Q 104.89 137.30 102.05 136.46&#10;  C 88.06 132.32 75.39 119.46 79.89 103.83&#10;  C 83.34 91.84 95.05 84.46 107.01 83.22&#10;  C 112.15 82.69 119.70 82.48 125.33 83.58&#10;  Q 135.21 85.51 146.24 91.61&#10;  Q 167.98 103.62 180.96 125.60&#10;  Q 189.73 140.45 196.45 159.60&#10;  Q 196.58 159.98 196.92 160.13&#10;  Z&#10;  M 199.11 238.58&#10;  Q 200.74 230.96 203.65 220.42&#10;  C 205.50 213.72 207.45 209.87 211.02 201.76&#10;  C 220.62 179.97 238.14 162.58 259.28 151.50&#10;  Q 266.96 147.47 278.42 142.39&#10;  Q 292.09 136.32 303.20 128.67&#10;  C 312.95 121.95 320.63 112.39 321.15 100.07&#10;  C 321.75 85.67 307.24 78.23 295.00 77.80&#10;  Q 283.99 77.41 272.83 81.10&#10;  Q 264.08 83.99 258.43 87.20&#10;  C 225.34 105.98 205.43 141.58 197.98 178.77&#10;  A 0.45 0.45 0.0 0 1 197.11 178.82&#10;  Q 196.02 175.41 191.80 162.17&#10;  C 183.09 134.91 166.46 107.33 140.41 94.48&#10;  C 132.77 90.72 122.76 88.48 113.18 88.88&#10;  Q 106.92 89.14 106.02 89.27&#10;  C 95.73 90.72 85.69 97.58 84.87 108.56&#10;  C 84.00 120.17 93.88 128.53 104.32 130.95&#10;  Q 107.66 131.72 119.00 134.25&#10;  C 135.70 137.97 151.97 146.07 163.68 158.46&#10;  Q 169.82 164.97 171.49 167.27&#10;  Q 181.16 180.58 186.98 196.52&#10;  Q 194.44 216.96 198.73 238.57&#10;  A 0.20 0.19 46.1 0 0 199.11 238.58&#10;  Z"/>
<path fill="#00a2ff" d="&#10;  M 199.11 238.58&#10;  A 0.20 0.19 46.1 0 1 198.73 238.57&#10;  Q 194.44 216.96 186.98 196.52&#10;  Q 181.16 180.58 171.49 167.27&#10;  Q 169.82 164.97 163.68 158.46&#10;  C 151.97 146.07 135.70 137.97 119.00 134.25&#10;  Q 107.66 131.72 104.32 130.95&#10;  C 93.88 128.53 84.00 120.17 84.87 108.56&#10;  C 85.69 97.58 95.73 90.72 106.02 89.27&#10;  Q 106.92 89.14 113.18 88.88&#10;  C 122.76 88.48 132.77 90.72 140.41 94.48&#10;  C 166.46 107.33 183.09 134.91 191.80 162.17&#10;  Q 196.02 175.41 197.11 178.82&#10;  A 0.45 0.45 0.0 0 0 197.98 178.77&#10;  C 205.43 141.58 225.34 105.98 258.43 87.20&#10;  Q 264.08 83.99 272.83 81.10&#10;  Q 283.99 77.41 295.00 77.80&#10;  C 307.24 78.23 321.75 85.67 321.15 100.07&#10;  C 320.63 112.39 312.95 121.95 303.20 128.67&#10;  Q 292.09 136.32 278.42 142.39&#10;  Q 266.96 147.47 259.28 151.50&#10;  C 238.14 162.58 220.62 179.97 211.02 201.76&#10;  C 207.45 209.87 205.50 213.72 203.65 220.42&#10;  Q 200.74 230.96 199.11 238.58&#10;  Z"/>
<path fill="#003788" d="&#10;  M 658.64 225.92&#10;  C 665.54 226.83 670.05 233.97 672.40 239.82&#10;  C 675.12 246.62 670.30 255.09 665.04 259.73&#10;  C 653.93 269.54 640.28 272.53 625.65 272.06&#10;  C 612.28 271.64 602.52 268.18 592.10 260.79&#10;  Q 586.34 256.70 581.33 249.75&#10;  C 566.59 229.32 563.84 202.68 569.55 178.51&#10;  C 574.51 157.53 589.46 139.97 611.21 134.82&#10;  Q 625.46 131.44 640.71 133.84&#10;  Q 652.74 135.73 663.31 143.22&#10;  C 671.60 149.10 675.54 157.34 668.18 166.18&#10;  Q 663.40 171.94 657.63 176.89&#10;  C 654.71 179.40 651.60 178.34 649.02 175.55&#10;  C 645.11 171.32 639.99 166.94 634.09 166.12&#10;  C 621.88 164.43 614.21 168.90 608.66 179.55&#10;  Q 606.42 183.85 605.33 189.85&#10;  Q 602.86 203.41 605.81 216.72&#10;  C 609.21 232.10 625.04 244.01 640.49 237.19&#10;  Q 642.54 236.29 646.38 233.06&#10;  C 649.19 230.70 653.14 227.34 657.51 226.01&#10;  A 2.68 2.58 -48.4 0 1 658.64 225.92&#10;  Z&#10;  M 650.93 170.64&#10;  C 652.00 171.95 653.71 172.84 655.11 171.62&#10;  Q 660.03 167.31 663.96 162.92&#10;  Q 670.14 156.00 663.23 149.81&#10;  Q 655.94 143.27 647.11 140.78&#10;  Q 632.87 136.75 616.81 139.02&#10;  C 596.08 141.95 580.64 157.84 575.17 177.58&#10;  Q 569.38 198.45 573.99 221.27&#10;  C 576.32 232.81 581.65 242.85 589.53 251.22&#10;  C 598.94 261.21 612.44 266.29 626.03 266.62&#10;  C 639.30 266.94 651.61 264.47 661.41 255.92&#10;  C 666.76 251.25 670.16 246.13 666.61 239.32&#10;  Q 663.47 233.28 659.53 231.44&#10;  A 1.46 1.41 53.4 0 0 658.74 231.31&#10;  C 655.54 231.73 652.85 234.62 649.06 237.75&#10;  C 640.43 244.86 629.70 246.75 619.57 242.13&#10;  C 605.11 235.54 599.29 219.87 598.74 204.81&#10;  C 598.04 185.60 604.82 161.48 627.69 160.37&#10;  C 637.23 159.91 644.90 163.32 650.93 170.64&#10;  Z"/>
<path fill="#003788" d="&#10;  M 736.85 270.92&#10;  C 728.51 272.34 717.90 272.88 709.75 270.02&#10;  C 707.33 269.17 705.00 268.90 702.51 267.80&#10;  C 693.83 263.98 685.43 257.25 681.34 248.59&#10;  Q 678.04 241.58 682.56 234.76&#10;  Q 686.45 228.89 691.99 225.90&#10;  Q 697.21 223.10 699.42 222.86&#10;  C 703.83 222.39 706.36 227.16 709.15 230.92&#10;  C 714.02 237.48 721.02 240.24 729.27 238.57&#10;  C 733.97 237.62 738.66 233.56 737.91 228.46&#10;  C 737.11 222.98 732.28 220.88 727.35 219.41&#10;  C 718.17 216.68 706.08 215.64 696.27 209.43&#10;  Q 683.05 201.05 681.19 184.22&#10;  C 680.72 180.03 680.40 172.58 681.37 168.20&#10;  Q 684.06 156.04 691.45 147.93&#10;  C 696.22 142.71 704.02 137.81 711.46 135.57&#10;  C 726.71 130.98 744.79 132.74 758.26 142.25&#10;  Q 765.93 147.66 767.96 156.53&#10;  C 769.52 163.32 759.09 173.46 754.31 176.77&#10;  Q 749.89 179.83 745.65 176.02&#10;  Q 742.15 172.87 738.65 169.13&#10;  Q 736.01 166.31 732.28 165.98&#10;  C 725.98 165.41 719.53 166.08 717.58 173.40&#10;  C 714.57 184.74 732.91 187.14 740.47 187.99&#10;  A 8.54 8.27 55.4 0 1 741.87 188.27&#10;  Q 750.52 190.91 757.48 195.29&#10;  Q 766.29 200.83 770.97 210.34&#10;  C 775.70 219.95 775.21 233.51 771.57 243.54&#10;  C 766.18 258.37 752.41 268.28 736.85 270.92&#10;  Z&#10;  M 751.43 172.26&#10;  C 755.15 169.29 762.72 162.53 762.77 157.72&#10;  Q 762.81 154.14 760.68 151.50&#10;  C 752.98 141.91 740.54 138.59 728.24 138.51&#10;  C 717.20 138.44 705.22 141.84 697.09 149.69&#10;  Q 687.74 158.72 686.01 170.76&#10;  C 683.70 186.90 688.83 200.54 704.09 207.28&#10;  C 712.75 211.11 722.94 212.20 729.99 214.54&#10;  Q 734.80 216.14 737.88 218.40&#10;  C 744.42 223.20 745.03 233.17 739.59 238.95&#10;  Q 734.96 243.86 727.78 244.48&#10;  C 715.68 245.52 707.40 238.99 701.42 229.02&#10;  A 2.23 2.23 0.0 0 0 698.57 228.14&#10;  Q 692.08 231.10 686.92 236.98&#10;  Q 683.35 241.06 685.85 246.39&#10;  C 693.40 262.49 714.96 267.84 730.80 266.26&#10;  C 747.99 264.54 761.51 256.33 767.43 239.71&#10;  C 769.26 234.57 769.65 227.60 769.04 222.75&#10;  Q 766.92 206.18 752.25 198.34&#10;  C 743.52 193.68 731.55 191.95 724.78 189.95&#10;  Q 719.38 188.35 717.81 187.09&#10;  Q 709.11 180.07 712.74 170.29&#10;  C 714.79 164.79 720.23 161.07 725.77 160.32&#10;  Q 736.69 158.83 743.91 166.39&#10;  Q 748.64 171.35 749.10 171.96&#10;  A 1.64 1.64 0.0 0 0 751.43 172.26&#10;  Z"/>
<path fill="#003788" d="&#10;  M 392.14 175.49&#10;  A 0.52 0.51 54.9 0 0 393.04 175.65&#10;  Q 407.44 156.54 419.83 141.60&#10;  Q 423.63 137.01 427.79 135.77&#10;  Q 429.89 135.14 437.72 134.85&#10;  Q 445.76 134.55 451.21 135.53&#10;  Q 458.12 136.78 458.84 143.33&#10;  A 2.31 2.27 -38.3 0 1 458.70 144.44&#10;  Q 457.40 147.96 454.98 151.22&#10;  Q 437.30 175.08 423.35 192.59&#10;  A 0.73 0.73 0.0 0 0 423.30 193.43&#10;  Q 428.87 202.41 430.24 204.78&#10;  Q 443.39 227.51 457.59 250.67&#10;  Q 459.73 254.16 461.78 259.92&#10;  A 2.86 2.86 0.0 0 1 461.91 261.23&#10;  Q 460.90 268.72 452.99 269.71&#10;  Q 448.43 270.28 434.77 269.92&#10;  Q 428.24 269.76 424.93 266.52&#10;  Q 424.19 265.80 419.30 257.43&#10;  Q 407.05 236.48 397.60 220.87&#10;  A 1.11 1.11 0.0 0 0 395.94 220.60&#10;  C 394.15 222.09 391.92 223.98 391.95 226.76&#10;  Q 392.16 243.36 392.03 256.93&#10;  Q 391.93 266.58 383.58 269.62&#10;  A 5.63 5.58 32.7 0 1 382.18 269.92&#10;  Q 380.59 270.04 370.51 270.03&#10;  C 363.58 270.02 357.03 268.76 355.77 260.99&#10;  C 355.29 258.03 354.90 254.06 354.92 250.33&#10;  Q 355.06 223.69 355.01 155.25&#10;  Q 355.00 147.06 355.64 142.84&#10;  C 357.12 132.94 374.87 134.47 382.11 135.35&#10;  C 390.36 136.35 392.01 142.70 392.01 149.75&#10;  Q 391.99 160.68 392.00 174.00&#10;  Q 392.00 175.02 392.14 175.49&#10;  Z&#10;  M 386.66 190.78&#10;  Q 386.34 165.49 386.48 148.04&#10;  Q 386.51 144.62 385.40 142.17&#10;  A 2.34 2.31 -9.6 0 0 383.46 140.81&#10;  Q 376.48 140.27 368.69 140.45&#10;  C 364.42 140.55 360.93 140.26 360.74 145.24&#10;  Q 360.46 152.80 360.43 161.50&#10;  Q 360.39 176.90 360.49 258.96&#10;  Q 360.50 263.46 364.36 264.36&#10;  Q 367.35 265.06 378.44 264.87&#10;  Q 382.76 264.79 383.95 264.17&#10;  A 2.77 2.74 2.6 0 0 384.97 263.25&#10;  Q 386.34 261.19 386.37 258.21&#10;  Q 386.53 242.53 386.58 226.56&#10;  Q 386.59 224.06 387.65 222.84&#10;  Q 391.61 218.29 396.86 212.61&#10;  A 1.06 1.05 -39.7 0 1 398.53 212.76&#10;  Q 412.93 235.56 425.07 256.97&#10;  C 426.63 259.72 429.07 264.35 432.32 264.57&#10;  Q 441.60 265.21 453.14 264.44&#10;  C 458.19 264.10 456.63 259.55 455.00 256.79&#10;  Q 444.09 238.28 419.56 197.31&#10;  C 417.62 194.06 416.28 192.85 418.78 189.79&#10;  Q 428.52 177.89 450.40 149.14&#10;  Q 452.59 146.28 453.39 143.01&#10;  A 1.66 1.65 -74.9 0 0 452.26 141.03&#10;  Q 450.31 140.45 448.50 140.40&#10;  Q 446.43 140.35 430.78 140.35&#10;  C 426.60 140.35 425.45 142.60 422.64 146.03&#10;  Q 404.73 167.95 387.56 191.08&#10;  A 0.50 0.50 0.0 0 1 386.66 190.78&#10;  Z"/>
<path fill="#003788" d="&#10;  M 510.00 217.31&#10;  L 510.00 236.68&#10;  A 0.31 0.31 0.0 0 0 510.31 236.99&#10;  Q 537.90 237.03 552.51 236.93&#10;  Q 560.66 236.88 563.30 243.60&#10;  A 4.02 3.75 32.7 0 1 563.53 244.50&#10;  Q 564.80 253.59 563.42 261.20&#10;  Q 561.90 269.64 553.01 269.91&#10;  Q 548.00 270.06 496.46 269.96&#10;  C 491.12 269.95 485.56 270.27 480.94 269.12&#10;  C 474.53 267.51 473.75 262.07 473.17 256.33&#10;  Q 472.89 253.52 472.90 251.16&#10;  Q 473.03 221.87 473.01 184.54&#10;  Q 473.01 183.37 473.23 183.00&#10;  Q 473.53 182.50 473.19 182.00&#10;  Q 473.02 181.74 473.02 180.96&#10;  Q 473.02 156.31 473.13 149.00&#10;  C 473.18 145.96 473.60 141.36 475.41 138.11&#10;  A 1.89 1.85 -0.9 0 1 476.11 137.40&#10;  Q 480.41 134.89 485.75 134.92&#10;  Q 510.70 135.02 549.25 134.98&#10;  C 551.33 134.98 555.73 135.24 558.21 136.26&#10;  C 565.88 139.42 564.44 156.37 562.66 161.96&#10;  Q 561.39 165.98 556.05 167.85&#10;  A 2.72 2.62 -53.6 0 1 555.17 168.00&#10;  L 509.72 168.00&#10;  A 0.78 0.78 0.0 0 0 508.96 168.62&#10;  Q 508.83 169.29 509.47 170.08&#10;  A 0.99 0.99 0.0 0 1 509.60 171.12&#10;  Q 509.52 171.30 509.52 171.31&#10;  A 1.59 1.57 -44.6 0 0 509.51 172.11&#10;  Q 509.87 173.48 509.51 175.09&#10;  C 508.94 177.65 510.28 179.46 509.15 182.10&#10;  A 1.41 1.40 -48.5 0 0 509.22 183.34&#10;  Q 510.46 185.50 511.50 185.51&#10;  Q 525.00 185.64 541.60 185.64&#10;  C 547.78 185.63 551.06 190.97 551.11 196.65&#10;  C 551.17 204.87 552.55 212.75 546.29 215.98&#10;  Q 543.95 217.19 536.99 217.04&#10;  Q 532.20 216.93 510.28 217.02&#10;  A 0.29 0.28 90.0 0 0 510.00 217.31&#10;  Z&#10;  M 504.64 190.28&#10;  L 504.64 163.72&#10;  A 1.37 1.36 -0.4 0 1 505.99 162.36&#10;  Q 527.02 162.18 553.50 162.33&#10;  C 557.81 162.35 558.35 160.01 558.58 156.27&#10;  Q 558.99 149.38 558.32 143.72&#10;  A 3.26 3.25 -83.0 0 0 556.24 141.05&#10;  Q 554.75 140.49 552.25 140.48&#10;  Q 523.37 140.36 490.00 140.50&#10;  Q 483.72 140.52 481.50 140.69&#10;  Q 478.62 140.90 478.49 143.50&#10;  Q 478.26 147.69 478.26 150.25&#10;  Q 478.18 214.58 478.24 252.50&#10;  C 478.24 255.87 478.02 263.37 481.37 264.04&#10;  Q 485.91 264.95 489.75 264.89&#10;  Q 498.00 264.76 551.50 264.80&#10;  Q 553.98 264.80 556.48 263.98&#10;  A 1.75 1.71 -82.2 0 0 557.42 263.25&#10;  Q 558.40 261.72 558.51 260.47&#10;  Q 559.10 254.02 558.55 246.50&#10;  Q 558.22 242.13 554.14 242.10&#10;  Q 537.30 241.96 505.41 242.05&#10;  A 0.70 0.70 0.0 0 1 504.70 241.35&#10;  L 504.70 212.09&#10;  A 0.60 0.60 0.0 0 1 505.30 211.49&#10;  Q 529.89 211.61 541.00 211.59&#10;  Q 542.84 211.58 544.55 210.79&#10;  A 1.08 1.08 0.0 0 0 545.14 210.04&#10;  C 545.94 206.32 546.46 194.49 544.48 191.90&#10;  A 1.64 1.57 -11.4 0 0 543.55 191.31&#10;  Q 541.60 190.88 539.00 190.89&#10;  Q 538.90 190.89 505.47 191.10&#10;  A 0.83 0.82 -0.0 0 1 504.64 190.28&#10;  Z"/>
<path fill="#00a2ff" d="&#10;  M 655.11 171.62&#10;  C 653.71 172.84 652.00 171.95 650.93 170.64&#10;  C 644.90 163.32 637.23 159.91 627.69 160.37&#10;  C 604.82 161.48 598.04 185.60 598.74 204.81&#10;  C 599.29 219.87 605.11 235.54 619.57 242.13&#10;  C 629.70 246.75 640.43 244.86 649.06 237.75&#10;  C 652.85 234.62 655.54 231.73 658.74 231.31&#10;  A 1.46 1.41 53.4 0 1 659.53 231.44&#10;  Q 663.47 233.28 666.61 239.32&#10;  C 670.16 246.13 666.76 251.25 661.41 255.92&#10;  C 651.61 264.47 639.30 266.94 626.03 266.62&#10;  C 612.44 266.29 598.94 261.21 589.53 251.22&#10;  C 581.65 242.85 576.32 232.81 573.99 221.27&#10;  Q 569.38 198.45 575.17 177.58&#10;  C 580.64 157.84 596.08 141.95 616.81 139.02&#10;  Q 632.87 136.75 647.11 140.78&#10;  Q 655.94 143.27 663.23 149.81&#10;  Q 670.14 156.00 663.96 162.92&#10;  Q 660.03 167.31 655.11 171.62&#10;  Z"/>
<path fill="#00a2ff" d="&#10;  M 751.43 172.26&#10;  A 1.64 1.64 0.0 0 1 749.10 171.96&#10;  Q 748.64 171.35 743.91 166.39&#10;  Q 736.69 158.83 725.77 160.32&#10;  C 720.23 161.07 714.79 164.79 712.74 170.29&#10;  Q 709.11 180.07 717.81 187.09&#10;  Q 719.38 188.35 724.78 189.95&#10;  C 731.55 191.95 743.52 193.68 752.25 198.34&#10;  Q 766.92 206.18 769.04 222.75&#10;  C 769.65 227.60 769.26 234.57 767.43 239.71&#10;  C 761.51 256.33 747.99 264.54 730.80 266.26&#10;  C 714.96 267.84 693.40 262.49 685.85 246.39&#10;  Q 683.35 241.06 686.92 236.98&#10;  Q 692.08 231.10 698.57 228.14&#10;  A 2.23 2.23 0.0 0 1 701.42 229.02&#10;  C 707.40 238.99 715.68 245.52 727.78 244.48&#10;  Q 734.96 243.86 739.59 238.95&#10;  C 745.03 233.17 744.42 223.20 737.88 218.40&#10;  Q 734.80 216.14 729.99 214.54&#10;  C 722.94 212.20 712.75 211.11 704.09 207.28&#10;  C 688.83 200.54 683.70 186.90 686.01 170.76&#10;  Q 687.74 158.72 697.09 149.69&#10;  C 705.22 141.84 717.20 138.44 728.24 138.51&#10;  C 740.54 138.59 752.98 141.91 760.68 151.50&#10;  Q 762.81 154.14 762.77 157.72&#10;  C 762.72 162.53 755.15 169.29 751.43 172.26&#10;  Z"/>
<path fill="#00a2ff" d="&#10;  M 386.66 190.78&#10;  A 0.50 0.50 0.0 0 0 387.56 191.08&#10;  Q 404.73 167.95 422.64 146.03&#10;  C 425.45 142.60 426.60 140.35 430.78 140.35&#10;  Q 446.43 140.35 448.50 140.40&#10;  Q 450.31 140.45 452.26 141.03&#10;  A 1.66 1.65 -74.9 0 1 453.39 143.01&#10;  Q 452.59 146.28 450.40 149.14&#10;  Q 428.52 177.89 418.78 189.79&#10;  C 416.28 192.85 417.62 194.06 419.56 197.31&#10;  Q 444.09 238.28 455.00 256.79&#10;  C 456.63 259.55 458.19 264.10 453.14 264.44&#10;  Q 441.60 265.21 432.32 264.57&#10;  C 429.07 264.35 426.63 259.72 425.07 256.97&#10;  Q 412.93 235.56 398.53 212.76&#10;  A 1.06 1.05 -39.7 0 0 396.86 212.61&#10;  Q 391.61 218.29 387.65 222.84&#10;  Q 386.59 224.06 386.58 226.56&#10;  Q 386.53 242.53 386.37 258.21&#10;  Q 386.34 261.19 384.97 263.25&#10;  A 2.77 2.74 2.6 0 1 383.95 264.17&#10;  Q 382.76 264.79 378.44 264.87&#10;  Q 367.35 265.06 364.36 264.36&#10;  Q 360.50 263.46 360.49 258.96&#10;  Q 360.39 176.90 360.43 161.50&#10;  Q 360.46 152.80 360.74 145.24&#10;  C 360.93 140.26 364.42 140.55 368.69 140.45&#10;  Q 376.48 140.27 383.46 140.81&#10;  A 2.34 2.31 -9.6 0 1 385.40 142.17&#10;  Q 386.51 144.62 386.48 148.04&#10;  Q 386.34 165.49 386.66 190.78&#10;  Z"/>
<path fill="#00a2ff" d="&#10;  M 505.47 191.10&#10;  Q 538.90 190.89 539.00 190.89&#10;  Q 541.60 190.88 543.55 191.31&#10;  A 1.64 1.57 -11.4 0 1 544.48 191.90&#10;  C 546.46 194.49 545.94 206.32 545.14 210.04&#10;  A 1.08 1.08 0.0 0 1 544.55 210.79&#10;  Q 542.84 211.58 541.00 211.59&#10;  Q 529.89 211.61 505.30 211.49&#10;  A 0.60 0.60 0.0 0 0 504.70 212.09&#10;  L 504.70 241.35&#10;  A 0.70 0.70 0.0 0 0 505.41 242.05&#10;  Q 537.30 241.96 554.14 242.10&#10;  Q 558.22 242.13 558.55 246.50&#10;  Q 559.10 254.02 558.51 260.47&#10;  Q 558.40 261.72 557.42 263.25&#10;  A 1.75 1.71 -82.2 0 1 556.48 263.98&#10;  Q 553.98 264.80 551.50 264.80&#10;  Q 498.00 264.76 489.75 264.89&#10;  Q 485.91 264.95 481.37 264.04&#10;  C 478.02 263.37 478.24 255.87 478.24 252.50&#10;  Q 478.18 214.58 478.26 150.25&#10;  Q 478.26 147.69 478.49 143.50&#10;  Q 478.62 140.90 481.50 140.69&#10;  Q 483.72 140.52 490.00 140.50&#10;  Q 523.37 140.36 552.25 140.48&#10;  Q 554.75 140.49 556.24 141.05&#10;  A 3.26 3.25 -83.0 0 1 558.32 143.72&#10;  Q 558.99 149.38 558.58 156.27&#10;  C 558.35 160.01 557.81 162.35 553.50 162.33&#10;  Q 527.02 162.18 505.99 162.36&#10;  A 1.37 1.36 -0.4 0 0 504.64 163.72&#10;  L 504.64 190.28&#10;  A 0.83 0.82 -0.0 0 0 505.47 191.10&#10;  Z"/>
<path fill="#003788" d="&#10;  M 236.11 201.97&#10;  Q 237.50 198.25 239.30 196.28&#10;  C 247.55 187.27 256.30 178.01 266.95 172.49&#10;  C 273.55 169.07 279.36 168.80 285.20 172.75&#10;  Q 288.37 174.89 290.69 179.02&#10;  Q 293.02 183.17 291.43 188.70&#10;  C 288.81 197.78 280.99 202.44 271.80 202.81&#10;  Q 266.82 203.01 245.50 204.75&#10;  C 242.45 205.00 237.97 205.63 236.22 202.97&#10;  A 1.11 1.10 -51.5 0 1 236.11 201.97&#10;  Z&#10;  M 245.25 199.35&#10;  Q 258.81 197.25 269.95 197.00&#10;  C 276.38 196.85 282.08 195.31 284.73 190.04&#10;  Q 288.27 182.98 283.10 178.13&#10;  C 277.72 173.08 268.23 176.93 263.26 180.83&#10;  Q 253.18 188.74 244.78 198.50&#10;  A 0.52 0.52 0.0 0 0 245.25 199.35&#10;  Z"/>
<path fill="#00a2ff" d="&#10;  M 245.25 199.35&#10;  A 0.52 0.52 0.0 0 1 244.78 198.50&#10;  Q 253.18 188.74 263.26 180.83&#10;  C 268.23 176.93 277.72 173.08 283.10 178.13&#10;  Q 288.27 182.98 284.73 190.04&#10;  C 282.08 195.31 276.38 196.85 269.95 197.00&#10;  Q 258.81 197.25 245.25 199.35&#10;  Z"/>
<path fill="#003788" d="&#10;  M 209.48 384.23&#10;  A 0.91 0.91 0.0 0 1 208.54 383.87&#10;  C 205.81 379.99 205.23 374.25 203.93 370.34&#10;  C 200.38 359.63 197.33 348.77 193.83 337.40&#10;  Q 185.49 310.34 172.80 285.22&#10;  Q 170.94 281.54 170.07 276.54&#10;  A 3.20 3.16 49.1 0 1 170.17 275.01&#10;  Q 172.14 268.71 176.25 267.00&#10;  Q 186.32 262.81 195.67 267.61&#10;  C 199.02 269.33 202.44 272.66 204.35 274.37&#10;  A 1.77 1.77 0.0 0 0 207.13 274.22&#10;  L 208.27 272.60&#10;  A 1.92 1.74 -8.5 0 1 208.50 272.32&#10;  Q 218.89 261.93 233.47 265.87&#10;  C 238.41 267.20 238.54 274.44 237.00 278.26&#10;  C 234.70 283.95 231.71 289.74 229.37 296.42&#10;  C 220.30 322.30 216.07 349.60 213.31 377.30&#10;  C 213.06 379.77 212.40 383.58 209.48 384.23&#10;  Z&#10;  M 208.45 365.61&#10;  Q 209.55 361.02 210.53 352.94&#10;  C 212.70 335.06 216.78 317.04 222.09 300.78&#10;  C 224.72 292.71 228.06 285.32 231.65 276.92&#10;  Q 232.67 274.55 232.76 272.66&#10;  A 1.43 1.42 14.3 0 0 231.96 271.32&#10;  Q 227.56 269.14 222.68 270.47&#10;  C 216.07 272.27 211.79 277.44 207.76 280.50&#10;  C 205.72 282.04 204.12 281.54 202.31 279.80&#10;  C 196.34 274.05 188.28 267.85 179.52 271.55&#10;  C 173.45 274.11 176.55 281.07 178.56 285.20&#10;  C 191.12 311.15 200.15 338.04 208.06 365.62&#10;  A 0.20 0.20 0.0 0 0 208.45 365.61&#10;  Z"/>
<path fill="#00a2ff" d="&#10;  M 208.45 365.61&#10;  A 0.20 0.20 0.0 0 1 208.06 365.62&#10;  C 200.15 338.04 191.12 311.15 178.56 285.20&#10;  C 176.55 281.07 173.45 274.11 179.52 271.55&#10;  C 188.28 267.85 196.34 274.05 202.31 279.80&#10;  C 204.12 281.54 205.72 282.04 207.76 280.50&#10;  C 211.79 277.44 216.07 272.27 222.68 270.47&#10;  Q 227.56 269.14 231.96 271.32&#10;  A 1.43 1.42 14.3 0 1 232.76 272.66&#10;  Q 232.67 274.55 231.65 276.92&#10;  C 228.06 285.32 224.72 292.71 222.09 300.78&#10;  C 216.78 317.04 212.70 335.06 210.53 352.94&#10;  Q 209.55 361.02 208.45 365.61&#10;  Z"/>
<path fill="#003788" d="&#10;  M 427.28 739.71&#10;  Q 427.71 740.40 428.20 740.76&#10;  A 1.97 1.94 -81.7 0 1 428.89 741.70&#10;  C 430.52 746.50 433.27 751.03 435.65 756.20&#10;  Q 443.72 773.71 451.83 790.93&#10;  C 453.81 795.13 458.46 803.37 450.53 804.97&#10;  Q 445.10 806.07 441.02 806.02&#10;  Q 425.10 805.84 410.77 801.72&#10;  C 389.58 795.63 370.52 779.70 357.91 761.74&#10;  Q 349.60 749.89 343.62 737.16&#10;  A 0.28 0.28 0.0 0 0 343.08 737.26&#10;  C 342.75 743.00 343.53 748.52 343.96 753.43&#10;  Q 344.25 756.82 345.19 763.56&#10;  Q 346.63 773.91 347.09 780.46&#10;  Q 347.38 784.58 343.93 786.24&#10;  Q 341.58 787.36 336.99 786.70&#10;  Q 314.46 783.46 297.08 768.22&#10;  Q 293.20 764.82 291.15 762.37&#10;  C 283.99 753.83 277.95 744.70 274.22 734.19&#10;  Q 271.88 727.59 271.16 725.53&#10;  Q 269.88 721.87 266.33 721.12&#10;  Q 265.85 721.02 253.92 717.49&#10;  Q 248.59 715.91 241.68 713.29&#10;  Q 219.05 704.73 196.80 692.94&#10;  Q 168.95 678.20 144.41 657.09&#10;  Q 127.98 642.95 114.89 624.62&#10;  Q 102.83 607.72 96.67 588.82&#10;  Q 85.68 555.06 96.34 522.30&#10;  Q 100.04 510.94 107.12 497.90&#10;  Q 108.80 494.82 112.50 489.67&#10;  C 114.46 486.95 117.43 482.12 120.02 478.94&#10;  Q 130.62 465.95 140.14 456.39&#10;  C 151.39 445.09 163.34 436.27 176.89 427.34&#10;  Q 205.63 408.39 239.01 398.18&#10;  Q 244.95 396.36 253.01 394.65&#10;  C 258.94 393.39 264.71 391.99 271.94 390.90&#10;  C 289.66 388.23 306.87 386.13 324.14 385.89&#10;  A 1.40 1.39 24.6 0 0 324.99 385.58&#10;  Q 325.56 385.13 326.10 385.60&#10;  A 0.53 0.53 0.0 0 0 326.87 385.53&#10;  Q 327.30 384.99 330.00 384.99&#10;  C 351.22 385.04 369.59 384.57 388.98 385.76&#10;  Q 424.69 387.97 451.50 392.25&#10;  Q 466.75 394.69 472.54 396.25&#10;  Q 478.54 397.86 483.99 398.99&#10;  A 2.43 2.42 21.6 0 0 486.54 397.89&#10;  C 488.74 394.30 490.25 391.20 493.05 387.89&#10;  Q 510.99 366.74 535.25 355.26&#10;  Q 544.68 350.79 557.74 346.64&#10;  Q 569.88 342.78 581.20 341.17&#10;  C 585.14 340.61 588.91 343.32 587.89 347.54&#10;  Q 584.84 360.18 581.63 369.62&#10;  Q 573.51 393.41 562.38 415.38&#10;  A 0.74 0.73 23.2 0 0 562.80 416.41&#10;  Q 574.43 420.38 584.69 424.97&#10;  C 602.55 432.97 619.92 441.43 635.56 451.46&#10;  Q 679.59 479.71 722.85 515.49&#10;  C 743.23 532.35 763.02 550.99 782.47 570.78&#10;  Q 784.41 572.76 786.01 574.68&#10;  A 0.37 0.37 0.0 0 0 786.65 574.56&#10;  Q 787.18 572.82 787.49 570.56&#10;  Q 789.54 555.33 791.92 545.68&#10;  Q 800.50 510.93 817.06 481.29&#10;  Q 824.29 468.34 836.34 453.01&#10;  C 854.17 430.35 877.15 412.84 902.87 401.01&#10;  C 915.95 395.00 930.80 390.96 945.73 387.98&#10;  Q 953.53 386.43 961.00 385.96&#10;  C 963.68 385.80 968.17 386.06 969.92 388.29&#10;  A 1.02 1.01 -56.4 0 1 970.10 389.21&#10;  Q 968.99 393.11 968.20 394.18&#10;  Q 958.28 407.51 954.79 413.02&#10;  Q 941.90 433.41 935.65 454.37&#10;  C 930.89 470.30 926.31 488.83 918.50 505.50&#10;  Q 900.42 544.12 861.44 560.68&#10;  C 860.66 561.01 859.95 560.97 859.30 561.27&#10;  A 0.73 0.73 0.0 0 0 859.30 562.59&#10;  C 867.60 566.59 875.36 570.62 881.18 577.74&#10;  C 888.46 586.65 891.25 597.02 894.30 608.23&#10;  Q 896.60 616.70 898.24 620.52&#10;  Q 904.11 634.18 915.22 644.55&#10;  C 920.05 649.05 925.42 651.86 931.35 655.64&#10;  C 934.44 657.61 935.66 661.85 931.35 663.41&#10;  Q 903.17 673.59 876.26 670.02&#10;  C 866.39 668.71 855.68 665.74 846.17 660.82&#10;  Q 815.56 644.98 798.31 614.47&#10;  Q 794.26 607.32 792.36 601.76&#10;  A 0.78 0.78 0.0 0 0 791.04 601.49&#10;  C 788.63 604.15 786.60 607.84 783.79 610.97&#10;  Q 781.40 613.65 776.25 620.24&#10;  Q 772.61 624.91 763.25 635.05&#10;  Q 757.22 641.59 749.13 648.80&#10;  Q 724.86 670.41 700.51 685.23&#10;  Q 674.55 701.01 642.59 713.64&#10;  C 627.38 719.65 609.12 724.89 593.49 728.20&#10;  Q 580.61 730.93 568.94 732.87&#10;  C 541.41 737.44 514.55 740.34 487.09 740.04&#10;  Q 470.94 739.86 449.75 740.05&#10;  Q 442.02 740.12 435.01 739.04&#10;  Q 433.89 738.87 427.64 739.04&#10;  A 0.44 0.44 0.0 0 0 427.28 739.71&#10;  Z&#10;  M 962.66 390.63&#10;  Q 951.52 391.93 937.40 395.23&#10;  Q 901.19 403.69 872.71 425.05&#10;  C 840.00 449.57 816.37 485.28 803.70 524.68&#10;  C 797.11 545.18 793.35 561.80 791.76 581.23&#10;  Q 791.61 583.07 790.38 584.71&#10;  A 0.61 0.60 -55.2 0 1 789.57 584.86&#10;  Q 787.41 583.46 786.98 583.00&#10;  Q 768.18 562.83 750.80 546.95&#10;  Q 740.55 537.58 740.37 537.43&#10;  Q 700.06 502.44 668.29 480.01&#10;  Q 644.94 463.54 626.91 452.63&#10;  Q 596.35 434.15 558.74 420.51&#10;  Q 557.54 420.07 556.05 418.89&#10;  A 1.05 1.04 -69.3 0 1 555.65 417.99&#10;  Q 555.76 416.11 556.64 414.43&#10;  Q 573.72 381.84 582.71 346.81&#10;  A 0.43 0.42 -69.8 0 0 582.49 346.32&#10;  Q 582.26 346.20 581.76 346.29&#10;  C 565.85 349.25 549.85 353.96 533.93 361.92&#10;  C 515.74 371.01 498.78 385.66 489.16 403.67&#10;  Q 488.01 405.82 485.46 405.09&#10;  Q 474.47 401.96 465.08 400.19&#10;  Q 443.79 396.16 424.01 394.08&#10;  Q 375.26 388.96 325.44 390.64&#10;  C 314.76 391.00 304.96 392.20 291.78 393.59&#10;  C 261.94 396.72 232.66 403.96 206.36 416.91&#10;  C 183.96 427.93 163.48 441.17 145.67 458.44&#10;  Q 132.62 471.10 123.70 482.84&#10;  Q 113.86 495.78 106.59 510.80&#10;  Q 96.16 532.37 96.31 556.95&#10;  Q 96.34 562.29 100.73 566.26&#10;  Q 108.03 572.86 114.73 576.25&#10;  C 120.68 579.25 129.32 582.36 136.62 583.58&#10;  Q 164.33 588.23 188.00 577.78&#10;  Q 198.77 573.03 208.52 562.70&#10;  A 0.95 0.95 0.0 0 0 208.71 561.70&#10;  Q 208.47 561.09 207.58 560.82&#10;  A 0.70 0.70 0.0 0 1 207.30 559.65&#10;  Q 209.70 557.26 212.19 556.71&#10;  C 217.37 555.59 217.93 558.77 218.77 562.95&#10;  Q 219.39 566.01 218.87 568.29&#10;  A 1.28 1.28 0.0 0 1 216.71 568.91&#10;  Q 215.13 567.34 214.20 564.82&#10;  A 0.78 0.77 54.2 0 0 212.87 564.60&#10;  C 200.90 579.42 181.17 588.12 162.50 589.74&#10;  Q 146.92 591.09 134.24 588.52&#10;  Q 113.48 584.31 98.39 570.16&#10;  A 0.41 0.41 0.0 0 0 97.70 570.52&#10;  Q 101.04 592.04 112.26 610.75&#10;  Q 124.02 630.37 140.61 646.12&#10;  Q 157.41 662.07 174.37 673.34&#10;  Q 221.04 704.32 275.77 717.94&#10;  Q 303.55 724.85 336.93 731.59&#10;  A 0.52 0.52 0.0 0 0 337.55 731.04&#10;  L 336.25 713.71&#10;  A 0.69 0.69 0.0 0 1 337.56 713.37&#10;  C 348.73 736.93 360.21 762.03 380.43 779.12&#10;  Q 408.71 803.04 448.45 799.59&#10;  A 0.87 0.87 0.0 0 0 449.17 798.36&#10;  Q 431.17 758.68 413.70 722.89&#10;  Q 412.34 720.11 411.05 716.92&#10;  C 409.53 713.16 407.92 710.27 408.06 707.83&#10;  A 0.88 0.88 0.0 0 1 409.61 707.31&#10;  Q 413.24 711.54 417.30 719.22&#10;  Q 420.74 725.72 423.79 732.33&#10;  A 1.43 1.42 79.8 0 0 424.96 733.15&#10;  Q 468.62 736.94 514.02 733.98&#10;  Q 555.61 731.27 595.44 722.14&#10;  Q 632.25 713.70 667.23 696.99&#10;  Q 717.89 672.79 756.27 634.29&#10;  Q 764.68 625.86 777.91 609.71&#10;  C 782.86 603.67 787.36 596.67 792.09 591.67&#10;  A 0.93 0.93 0.0 0 1 793.55 591.80&#10;  Q 794.66 593.49 795.17 594.84&#10;  C 797.78 601.68 801.74 610.61 805.44 616.46&#10;  C 815.98 633.10 828.90 645.51 845.86 654.91&#10;  Q 856.98 661.08 871.68 663.51&#10;  Q 899.41 668.09 926.73 659.23&#10;  A 0.28 0.28 0.0 0 0 926.77 658.71&#10;  C 916.95 653.57 907.31 645.82 900.91 636.20&#10;  Q 895.36 627.87 891.87 619.12&#10;  C 888.29 610.13 886.63 597.74 881.96 588.58&#10;  C 875.36 575.63 862.42 568.97 848.13 564.41&#10;  Q 846.34 563.84 845.63 562.65&#10;  A 1.87 1.86 67.4 0 1 846.76 559.88&#10;  C 870.80 553.76 894.10 536.83 906.92 515.41&#10;  Q 915.37 501.30 919.79 488.04&#10;  Q 923.47 477.05 927.43 462.98&#10;  C 932.59 444.61 938.43 430.27 947.35 415.20&#10;  C 952.15 407.10 958.42 399.05 963.04 391.22&#10;  A 0.39 0.39 0.0 0 0 962.66 390.63&#10;  Z&#10;  M 276.74 723.25&#10;  A 0.34 0.34 0.0 0 0 276.32 723.66&#10;  C 278.70 733.48 282.70 741.57 288.43 750.17&#10;  Q 305.91 776.39 338.32 781.37&#10;  Q 339.45 781.54 340.50 781.43&#10;  A 0.91 0.91 0.0 0 0 341.32 780.44&#10;  C 340.03 766.64 337.99 752.01 337.74 738.18&#10;  A 1.87 1.87 0.0 0 0 336.21 736.38&#10;  Q 303.77 730.28 276.74 723.25&#10;  Z"/>
<path fill="#00a2ff" d="&#10;  M 962.66 390.63&#10;  A 0.39 0.39 0.0 0 1 963.04 391.22&#10;  C 958.42 399.05 952.15 407.10 947.35 415.20&#10;  C 938.43 430.27 932.59 444.61 927.43 462.98&#10;  Q 923.47 477.05 919.79 488.04&#10;  Q 915.37 501.30 906.92 515.41&#10;  C 894.10 536.83 870.80 553.76 846.76 559.88&#10;  A 1.87 1.86 67.4 0 0 845.63 562.65&#10;  Q 846.34 563.84 848.13 564.41&#10;  C 862.42 568.97 875.36 575.63 881.96 588.58&#10;  C 886.63 597.74 888.29 610.13 891.87 619.12&#10;  Q 895.36 627.87 900.91 636.20&#10;  C 907.31 645.82 916.95 653.57 926.77 658.71&#10;  A 0.28 0.28 0.0 0 1 926.73 659.23&#10;  Q 899.41 668.09 871.68 663.51&#10;  Q 856.98 661.08 845.86 654.91&#10;  C 828.90 645.51 815.98 633.10 805.44 616.46&#10;  C 801.74 610.61 797.78 601.68 795.17 594.84&#10;  Q 794.66 593.49 793.55 591.80&#10;  A 0.93 0.93 0.0 0 0 792.09 591.67&#10;  C 787.36 596.67 782.86 603.67 777.91 609.71&#10;  Q 764.68 625.86 756.27 634.29&#10;  Q 717.89 672.79 667.23 696.99&#10;  Q 632.25 713.70 595.44 722.14&#10;  Q 555.61 731.27 514.02 733.98&#10;  Q 468.62 736.94 424.96 733.15&#10;  A 1.43 1.42 79.8 0 1 423.79 732.33&#10;  Q 420.74 725.72 417.30 719.22&#10;  Q 413.24 711.54 409.61 707.31&#10;  A 0.88 0.88 0.0 0 0 408.06 707.83&#10;  C 407.92 710.27 409.53 713.16 411.05 716.92&#10;  Q 412.34 720.11 413.70 722.89&#10;  Q 431.17 758.68 449.17 798.36&#10;  A 0.87 0.87 0.0 0 1 448.45 799.59&#10;  Q 408.71 803.04 380.43 779.12&#10;  C 360.21 762.03 348.73 736.93 337.56 713.37&#10;  A 0.69 0.69 0.0 0 0 336.25 713.71&#10;  L 337.55 731.04&#10;  A 0.52 0.52 0.0 0 1 336.93 731.59&#10;  Q 303.55 724.85 275.77 717.94&#10;  Q 221.04 704.32 174.37 673.34&#10;  Q 157.41 662.07 140.61 646.12&#10;  Q 124.02 630.37 112.26 610.75&#10;  Q 101.04 592.04 97.70 570.52&#10;  A 0.41 0.41 0.0 0 1 98.39 570.16&#10;  Q 113.48 584.31 134.24 588.52&#10;  Q 146.92 591.09 162.50 589.74&#10;  C 181.17 588.12 200.90 579.42 212.87 564.60&#10;  A 0.78 0.77 54.2 0 1 214.20 564.82&#10;  Q 215.13 567.34 216.71 568.91&#10;  A 1.28 1.28 0.0 0 0 218.87 568.29&#10;  Q 219.39 566.01 218.77 562.95&#10;  C 217.93 558.77 217.37 555.59 212.19 556.71&#10;  Q 209.70 557.26 207.30 559.65&#10;  A 0.70 0.70 0.0 0 0 207.58 560.82&#10;  Q 208.47 561.09 208.71 561.70&#10;  A 0.95 0.95 0.0 0 1 208.52 562.70&#10;  Q 198.77 573.03 188.00 577.78&#10;  Q 164.33 588.23 136.62 583.58&#10;  C 129.32 582.36 120.68 579.25 114.73 576.25&#10;  Q 108.03 572.86 100.73 566.26&#10;  Q 96.34 562.29 96.31 556.95&#10;  Q 96.16 532.37 106.59 510.80&#10;  Q 113.86 495.78 123.70 482.84&#10;  Q 132.62 471.10 145.67 458.44&#10;  C 163.48 441.17 183.96 427.93 206.36 416.91&#10;  C 232.66 403.96 261.94 396.72 291.78 393.59&#10;  C 304.96 392.20 314.76 391.00 325.44 390.64&#10;  Q 375.26 388.96 424.01 394.08&#10;  Q 443.79 396.16 465.08 400.19&#10;  Q 474.47 401.96 485.46 405.09&#10;  Q 488.01 405.82 489.16 403.67&#10;  C 498.78 385.66 515.74 371.01 533.93 361.92&#10;  C 549.85 353.96 565.85 349.25 581.76 346.29&#10;  Q 582.26 346.20 582.49 346.32&#10;  A 0.43 0.42 -69.8 0 1 582.71 346.81&#10;  Q 573.72 381.84 556.64 414.43&#10;  Q 555.76 416.11 555.65 417.99&#10;  A 1.05 1.04 -69.3 0 0 556.05 418.89&#10;  Q 557.54 420.07 558.74 420.51&#10;  Q 596.35 434.15 626.91 452.63&#10;  Q 644.94 463.54 668.29 480.01&#10;  Q 700.06 502.44 740.37 537.43&#10;  Q 740.55 537.58 750.80 546.95&#10;  Q 768.18 562.83 786.98 583.00&#10;  Q 787.41 583.46 789.57 584.86&#10;  A 0.61 0.60 -55.2 0 0 790.38 584.71&#10;  Q 791.61 583.07 791.76 581.23&#10;  C 793.35 561.80 797.11 545.18 803.70 524.68&#10;  C 816.37 485.28 840.00 449.57 872.71 425.05&#10;  Q 901.19 403.69 937.40 395.23&#10;  Q 951.52 391.93 962.66 390.63&#10;  Z&#10;  M 505.79 472.86&#10;  Q 507.23 473.51 508.67 474.32&#10;  C 520.98 481.32 537.73 477.49 540.94 462.22&#10;  C 543.40 450.59 534.63 439.95 523.02 440.05&#10;  C 515.93 440.11 510.58 443.38 505.35 447.70&#10;  A 0.92 0.92 0.0 0 1 504.00 447.50&#10;  C 501.87 444.24 500.77 442.44 498.31 440.06&#10;  C 481.41 423.75 457.23 416.97 434.32 423.31&#10;  C 420.96 427.01 409.75 433.62 402.21 444.73&#10;  Q 393.84 457.07 396.88 470.84&#10;  C 401.04 489.65 423.55 501.87 441.37 502.91&#10;  Q 449.28 503.37 453.26 502.98&#10;  Q 481.15 500.26 499.72 479.68&#10;  Q 501.36 477.86 502.37 476.43&#10;  Q 504.80 472.99 504.82 472.98&#10;  A 0.95 0.95 0.0 0 1 505.79 472.86&#10;  Z&#10;  M 205.81 475.60&#10;  A 10.35 5.04 -20.0 0 0 204.42 476.05&#10;  A 22.33 20.56 -26.0 0 0 201.52 477.30&#10;  A 5.53 1.73 -31.3 0 0 200.84 477.66&#10;  A 26.12 25.45 -79.4 0 0 188.60 492.20&#10;  A 26.14 25.50 -80.1 0 0 190.81 514.44&#10;  A 26.13 25.46 -79.4 0 0 203.22 525.07&#10;  A 13.55 8.17 22.8 0 0 205.02 525.71&#10;  A 26.12 25.48 -80.2 0 0 221.51 525.12&#10;  A 26.00 25.24 -77.9 0 0 227.23 522.01&#10;  A 26.15 25.44 -79.8 0 0 233.32 515.84&#10;  A 26.15 25.50 -78.1 0 0 238.16 501.44&#10;  A 26.22 25.52 -76.8 0 0 237.33 493.80&#10;  A 26.10 25.45 -78.9 0 0 233.42 485.31&#10;  A 26.22 25.45 -81.4 0 0 225.53 478.02&#10;  A 26.12 25.47 -79.0 0 0 205.81 475.60&#10;  Z&#10;  M 641.77 510.21&#10;  C 640.16 508.90 638.42 506.57 636.79 504.96&#10;  Q 619.04 487.39 594.97 482.85&#10;  C 571.91 478.50 535.28 485.67 527.20 511.60&#10;  Q 523.20 524.46 529.97 535.75&#10;  C 539.51 551.66 560.09 558.81 577.62 559.73&#10;  Q 603.35 561.07 625.82 546.93&#10;  C 630.79 543.81 635.44 539.64 640.13 535.36&#10;  A 0.96 0.95 -47.0 0 1 641.36 535.31&#10;  C 648.55 540.88 659.00 544.83 667.90 541.15&#10;  C 676.00 537.80 680.83 531.70 681.11 522.50&#10;  C 681.64 504.91 660.69 497.64 647.83 506.86&#10;  Q 643.27 510.14 642.76 510.35&#10;  A 0.94 0.94 0.0 0 1 641.77 510.21&#10;  Z&#10;  M 422.74 513.86&#10;  Q 429.11 509.73 430.04 509.03&#10;  Q 432.01 507.55 432.43 504.62&#10;  A 0.96 0.96 0.0 0 0 430.90 503.71&#10;  L 421.62 510.63&#10;  A 2.15 2.14 -27.6 0 0 420.86 513.03&#10;  L 420.91 513.19&#10;  A 1.23 1.22 64.9 0 0 422.74 513.86&#10;  Z&#10;  M 414.6897 517.5659&#10;  A 1.65 1.65 0.0 0 0 412.4039 517.0967&#10;  L 403.2874 523.1079&#10;  A 1.65 1.65 0.0 0 0 402.8182 525.3937&#10;  L 402.9503 525.5941&#10;  A 1.65 1.65 0.0 0 0 405.2361 526.0633&#10;  L 414.3526 520.0521&#10;  A 1.65 1.65 0.0 0 0 414.8218 517.7663&#10;  L 414.6897 517.5659&#10;  Z&#10;  M 517.1027 519.3645&#10;  A 1.64 1.64 0.0 0 0 514.8920 518.6632&#10;  L 506.7773 522.8694&#10;  A 1.64 1.64 0.0 0 0 506.0760 525.0802&#10;  L 506.1773 525.2755&#10;  A 1.64 1.64 0.0 0 0 508.3880 525.9768&#10;  L 516.5027 521.7706&#10;  A 1.64 1.64 0.0 0 0 517.2040 519.5598&#10;  L 517.1027 519.3645&#10;  Z&#10;  M 385.71 537.40&#10;  Q 390.14 535.25 394.40 532.67&#10;  Q 395.68 531.89 395.94 530.25&#10;  A 1.16 1.16 0.0 0 0 394.42 528.97&#10;  Q 387.74 531.21 383.00 536.34&#10;  Q 365.83 527.73 350.78 523.44&#10;  C 320.40 514.77 289.99 520.38 265.61 540.84&#10;  C 261.24 544.51 256.94 549.82 253.91 554.15&#10;  C 245.41 566.28 242.61 581.35 247.71 595.31&#10;  C 251.41 605.41 257.58 612.86 265.97 620.06&#10;  Q 273.30 626.34 282.35 630.39&#10;  Q 297.87 637.33 314.64 639.31&#10;  Q 326.30 640.69 340.27 638.61&#10;  Q 354.06 636.56 365.19 632.42&#10;  Q 370.25 630.54 379.18 626.85&#10;  C 382.80 625.35 385.64 623.33 389.08 621.87&#10;  Q 392.17 620.55 396.51 618.13&#10;  Q 411.23 609.93 422.78 600.29&#10;  A 0.43 0.43 0.0 0 1 423.39 600.34&#10;  C 431.57 609.96 447.99 618.70 460.15 610.06&#10;  C 467.37 604.93 466.22 596.80 463.33 589.64&#10;  A 2.65 2.65 0.0 0 1 463.64 587.11&#10;  Q 467.16 582.27 469.17 577.88&#10;  C 475.22 564.76 468.53 551.39 452.59 556.61&#10;  Q 447.55 558.26 442.31 561.56&#10;  Q 434.60 566.42 428.69 570.27&#10;  A 0.63 0.62 55.9 0 1 427.83 570.10&#10;  Q 426.14 567.64 423.65 565.34&#10;  Q 406.85 549.83 385.87 538.12&#10;  A 0.45 0.44 20.6 0 1 385.65 537.65&#10;  Q 385.67 537.54 385.71 537.40&#10;  Z&#10;  M 497.6936 528.3703&#10;  A 1.32 1.32 0.0 0 0 495.9665 527.6620&#10;  L 486.4274 531.6522&#10;  A 1.32 1.32 0.0 0 0 485.7191 533.3794&#10;  L 486.0664 534.2097&#10;  A 1.32 1.32 0.0 0 0 487.7935 534.9180&#10;  L 497.3326 530.9278&#10;  A 1.32 1.32 0.0 0 0 498.0409 529.2006&#10;  L 497.6936 528.3703&#10;  Z&#10;  M 478.0935 535.8193&#10;  A 1.64 1.64 0.0 0 0 476.0591 534.7055&#10;  L 466.8642 537.3943&#10;  A 1.64 1.64 0.0 0 0 465.7504 539.4287&#10;  L 465.8065 539.6207&#10;  A 1.64 1.64 0.0 0 0 467.8409 540.7345&#10;  L 477.0358 538.0457&#10;  A 1.64 1.64 0.0 0 0 478.1496 536.0113&#10;  L 478.0935 535.8193&#10;  Z&#10;  M 456.8292 541.5008&#10;  A 1.79 1.79 0.0 0 0 454.6369 540.2350&#10;  L 445.6151 542.6524&#10;  A 1.79 1.79 0.0 0 0 444.3494 544.8447&#10;  L 444.3908 544.9992&#10;  A 1.79 1.79 0.0 0 0 446.5831 546.2650&#10;  L 455.6049 543.8476&#10;  A 1.79 1.79 0.0 0 0 456.8706 541.6553&#10;  L 456.8292 541.5008&#10;  Z&#10;  M 435.5917 546.5723&#10;  A 1.74 1.74 0.0 0 0 433.5164 545.2501&#10;  L 423.6558 547.4362&#10;  A 1.74 1.74 0.0 0 0 422.3336 549.5115&#10;  L 422.3683 549.6677&#10;  A 1.74 1.74 0.0 0 0 424.4436 550.9899&#10;  L 434.3042 548.8038&#10;  A 1.74 1.74 0.0 0 0 435.6264 546.7285&#10;  L 435.5917 546.5723&#10;  Z&#10;  M 636.16 593.10&#10;  L 626.69 593.74&#10;  A 1.63 1.62 -2.1 0 0 625.18 595.36&#10;  L 625.18 595.98&#10;  A 1.79 1.79 0.0 0 0 627.37 597.73&#10;  L 634.48 596.12&#10;  Q 634.72 595.67 634.83 596.28&#10;  A 0.80 0.76 49.3 0 1 634.81 596.67&#10;  C 629.81 613.22 637.69 628.69 652.22 637.04&#10;  Q 661.11 642.15 671.99 644.01&#10;  C 696.33 648.18 720.93 639.09 737.58 621.35&#10;  A 0.97 0.97 0.0 0 1 738.85 621.22&#10;  Q 746.70 626.76 755.69 625.00&#10;  C 765.48 623.08 772.84 613.94 771.13 603.89&#10;  C 768.89 590.71 755.41 585.44 744.30 592.06&#10;  Q 741.01 594.02 738.86 595.78&#10;  A 0.88 0.88 0.0 0 1 737.58 595.59&#10;  Q 731.82 587.18 723.24 581.26&#10;  C 700.58 565.65 668.03 563.01 645.85 581.61&#10;  Q 639.63 586.83 636.16 593.10&#10;  Z&#10;  M 479.6300 591.5575&#10;  A 1.63 1.63 0.0 0 0 478.3310 589.6532&#10;  L 468.9765 587.8856&#10;  A 1.63 1.63 0.0 0 0 467.0722 589.1846&#10;  L 467.0500 589.3025&#10;  A 1.63 1.63 0.0 0 0 468.3490 591.2068&#10;  L 477.7035 592.9744&#10;  A 1.63 1.63 0.0 0 0 479.6078 591.6754&#10;  L 479.6300 591.5575&#10;  Z&#10;  M 502.8387 595.6708&#10;  A 1.54 1.54 0.0 0 0 501.5989 593.8803&#10;  L 491.9962 592.1352&#10;  A 1.54 1.54 0.0 0 0 490.2056 593.3750&#10;  L 490.1413 593.7292&#10;  A 1.54 1.54 0.0 0 0 491.3811 595.5197&#10;  L 500.9838 597.2648&#10;  A 1.54 1.54 0.0 0 0 502.7744 596.0250&#10;  L 502.8387 595.6708&#10;  Z&#10;  M 525.2632 598.4350&#10;  A 1.71 1.71 0.0 0 0 523.8623 596.4637&#10;  L 514.7714 594.9261&#10;  A 1.71 1.71 0.0 0 0 512.8002 596.3270&#10;  L 512.7768 596.4650&#10;  A 1.71 1.71 0.0 0 0 514.1777 598.4363&#10;  L 523.2686 599.9739&#10;  A 1.71 1.71 0.0 0 0 525.2398 598.5730&#10;  L 525.2632 598.4350&#10;  Z&#10;  M 616.0535 596.9196&#10;  A 1.29 1.29 0.0 0 0 614.6061 595.8091&#10;  L 605.3857 597.0229&#10;  A 1.29 1.29 0.0 0 0 604.2751 598.4703&#10;  L 604.4265 599.6204&#10;  A 1.29 1.29 0.0 0 0 605.8739 600.7309&#10;  L 615.0943 599.5171&#10;  A 1.29 1.29 0.0 0 0 616.2049 598.0697&#10;  L 616.0535 596.9196&#10;  Z&#10;  M 548.9130 600.0682&#10;  A 1.23 1.23 0.0 0 0 547.7902 598.7396&#10;  L 537.6858 597.8911&#10;  A 1.23 1.23 0.0 0 0 536.3572 599.0139&#10;  L 536.3070 599.6118&#10;  A 1.23 1.23 0.0 0 0 537.4298 600.9404&#10;  L 547.5342 601.7889&#10;  A 1.23 1.23 0.0 0 0 548.8628 600.6661&#10;  L 548.9130 600.0682&#10;  Z&#10;  M 594.7182 599.0517&#10;  A 1.15 1.15 0.0 0 0 593.4926 597.9826&#10;  L 583.1965 598.6845&#10;  A 1.15 1.15 0.0 0 0 582.1274 599.9101&#10;  L 582.1818 600.7083&#10;  A 1.15 1.15 0.0 0 0 583.4074 601.7774&#10;  L 593.7035 601.0755&#10;  A 1.15 1.15 0.0 0 0 594.7726 599.8499&#10;  L 594.7182 599.0517&#10;  Z&#10;  M 571.7298 600.0472&#10;  A 1.45 1.45 0.0 0 0 570.2747 598.6022&#10;  L 560.0948 598.6378&#10;  A 1.45 1.45 0.0 0 0 558.6499 600.0928&#10;  L 558.6502 600.1928&#10;  A 1.45 1.45 0.0 0 0 560.1053 601.6378&#10;  L 570.2852 601.6022&#10;  A 1.45 1.45 0.0 0 0 571.7301 600.1472&#10;  L 571.7298 600.0472&#10;  Z&#10;  M 400.0771 632.6048&#10;  A 1.59 1.59 0.0 0 0 399.7758 630.3764&#10;  L 390.5324 623.3349&#10;  A 1.59 1.59 0.0 0 0 388.3041 623.6361&#10;  L 388.1829 623.7952&#10;  A 1.59 1.59 0.0 0 0 388.4842 626.0236&#10;  L 397.7276 633.0651&#10;  A 1.59 1.59 0.0 0 0 399.9559 632.7639&#10;  L 400.0771 632.6048&#10;  Z&#10;  M 558.44 676.92&#10;  Q 559.75 677.92 562.41 679.59&#10;  C 574.63 687.25 592.53 679.61 595.61 665.30&#10;  C 599.60 646.74 578.09 634.52 564.06 647.08&#10;  Q 562.61 648.37 559.61 650.91&#10;  A 1.56 1.55 49.1 0 1 557.44 650.75&#10;  C 550.08 642.44 542.60 637.69 532.53 632.86&#10;  Q 517.39 625.59 500.11 625.53&#10;  Q 476.10 625.45 458.34 639.15&#10;  C 439.79 653.45 442.55 677.62 460.68 690.84&#10;  Q 477.58 703.15 498.49 703.26&#10;  C 521.13 703.38 542.48 693.55 557.60 677.00&#10;  A 0.63 0.63 0.0 0 1 558.44 676.92&#10;  Z&#10;  M 416.3528 645.0227&#10;  A 1.79 1.79 0.0 0 0 415.9263 642.5274&#10;  L 407.9118 636.8529&#10;  A 1.79 1.79 0.0 0 0 405.4165 637.2794&#10;  L 405.3472 637.3773&#10;  A 1.79 1.79 0.0 0 0 405.7737 639.8726&#10;  L 413.7882 645.5471&#10;  A 1.79 1.79 0.0 0 0 416.2835 645.1206&#10;  L 416.3528 645.0227&#10;  Z&#10;  M 433.7581 657.2855&#10;  A 1.71 1.71 0.0 0 0 433.4090 654.8925&#10;  L 425.0866 648.6892&#10;  A 1.71 1.71 0.0 0 0 422.6936 649.0383&#10;  L 422.6219 649.1345&#10;  A 1.71 1.71 0.0 0 0 422.9710 651.5275&#10;  L 431.2934 657.7308&#10;  A 1.71 1.71 0.0 0 0 433.6864 657.3817&#10;  L 433.7581 657.2855&#10;  Z"/>
<path fill="#003788" d="&#10;  M 504.82 472.98&#10;  Q 504.80 472.99 502.37 476.43&#10;  Q 501.36 477.86 499.72 479.68&#10;  Q 481.15 500.26 453.26 502.98&#10;  Q 449.28 503.37 441.37 502.91&#10;  C 423.55 501.87 401.04 489.65 396.88 470.84&#10;  Q 393.84 457.07 402.21 444.73&#10;  C 409.75 433.62 420.96 427.01 434.32 423.31&#10;  C 457.23 416.97 481.41 423.75 498.31 440.06&#10;  C 500.77 442.44 501.87 444.24 504.00 447.50&#10;  A 0.92 0.92 0.0 0 0 505.35 447.70&#10;  C 510.58 443.38 515.93 440.11 523.02 440.05&#10;  C 534.63 439.95 543.40 450.59 540.94 462.22&#10;  C 537.73 477.49 520.98 481.32 508.67 474.32&#10;  Q 507.23 473.51 505.79 472.86&#10;  A 0.95 0.95 0.0 0 0 504.82 472.98&#10;  Z&#10;  M 503.99 466.76&#10;  Q 506.26 466.90 506.97 467.28&#10;  C 513.61 470.90 518.76 474.27 526.65 471.60&#10;  Q 532.46 469.64 534.71 463.69&#10;  C 536.68 458.49 536.14 452.31 532.06 448.63&#10;  C 526.81 443.89 519.43 444.50 513.58 448.31&#10;  Q 511.98 449.35 504.85 453.92&#10;  A 1.92 1.91 -33.9 0 1 502.26 453.42&#10;  C 497.20 446.35 490.77 439.41 483.25 435.05&#10;  C 471.04 427.98 457.68 425.49 443.77 427.04&#10;  Q 426.76 428.94 413.49 439.76&#10;  C 399.13 451.47 396.79 470.45 410.35 483.75&#10;  Q 415.34 488.65 419.95 491.11&#10;  C 443.48 503.67 471.82 498.06 491.24 480.74&#10;  Q 496.63 475.93 500.46 469.73&#10;  Q 500.90 469.03 503.03 467.10&#10;  A 1.33 1.32 -64.4 0 1 503.99 466.76&#10;  Z"/>
<path fill="#f9990c" d="&#10;  M 503.03 467.10&#10;  Q 500.90 469.03 500.46 469.73&#10;  Q 496.63 475.93 491.24 480.74&#10;  C 471.82 498.06 443.48 503.67 419.95 491.11&#10;  Q 415.34 488.65 410.35 483.75&#10;  C 396.79 470.45 399.13 451.47 413.49 439.76&#10;  Q 426.76 428.94 443.77 427.04&#10;  C 457.68 425.49 471.04 427.98 483.25 435.05&#10;  C 490.77 439.41 497.20 446.35 502.26 453.42&#10;  A 1.92 1.91 -33.9 0 0 504.85 453.92&#10;  Q 511.98 449.35 513.58 448.31&#10;  C 519.43 444.50 526.81 443.89 532.06 448.63&#10;  C 536.14 452.31 536.68 458.49 534.71 463.69&#10;  Q 532.46 469.64 526.65 471.60&#10;  C 518.76 474.27 513.61 470.90 506.97 467.28&#10;  Q 506.26 466.90 503.99 466.76&#10;  A 1.33 1.32 -64.4 0 0 503.03 467.10&#10;  Z&#10;  M 429.5471 445.2019&#10;  A 9.91 9.31 -76.3 0 0 418.1549 452.6250&#10;  A 9.91 9.31 -76.3 0 0 424.8529 464.4581&#10;  A 9.91 9.31 -76.3 0 0 436.2451 457.0350&#10;  A 9.91 9.31 -76.3 0 0 429.5471 445.2019&#10;  Z"/>
<ellipse fill="#003788" cx="0.00" cy="0.00" transform="translate(427.20,454.83) rotate(-76.3)" rx="9.91" ry="9.31"/>
<path fill="#003788" d="&#10;  M 205.81 475.60&#10;  Q 205.12 475.68 204.42 476.05&#10;  A 10.35 5.04 -20.0 0 1 205.81 475.60&#10;  Z"/>
<path fill="#003788" d="&#10;  M 201.52 477.30&#10;  L 200.84 477.66&#10;  A 5.53 1.73 -31.3 0 1 201.52 477.30&#10;  Z"/>
<path fill="#003788" d="&#10;  M 642.76 510.35&#10;  Q 643.27 510.14 647.83 506.86&#10;  C 660.69 497.64 681.64 504.91 681.11 522.50&#10;  C 680.83 531.70 676.00 537.80 667.90 541.15&#10;  C 659.00 544.83 648.55 540.88 641.36 535.31&#10;  A 0.96 0.95 -47.0 0 0 640.13 535.36&#10;  C 635.44 539.64 630.79 543.81 625.82 546.93&#10;  Q 603.35 561.07 577.62 559.73&#10;  C 560.09 558.81 539.51 551.66 529.97 535.75&#10;  Q 523.20 524.46 527.20 511.60&#10;  C 535.28 485.67 571.91 478.50 594.97 482.85&#10;  Q 619.04 487.39 636.79 504.96&#10;  C 638.42 506.57 640.16 508.90 641.77 510.21&#10;  A 0.94 0.94 0.0 0 0 642.76 510.35&#10;  Z&#10;  M 649.61 511.62&#10;  C 647.70 513.01 641.56 518.46 639.01 515.20&#10;  Q 634.96 510.04 630.01 505.74&#10;  Q 603.03 482.30 567.70 488.15&#10;  C 555.23 490.21 544.33 494.98 536.43 504.82&#10;  C 530.19 512.60 529.32 523.03 533.67 531.76&#10;  C 540.71 545.88 559.01 552.18 573.49 554.04&#10;  C 590.56 556.23 609.40 551.18 623.77 542.03&#10;  C 628.91 538.75 633.34 534.50 637.81 530.84&#10;  C 641.64 527.70 645.50 531.64 648.87 533.87&#10;  C 659.09 540.64 674.82 537.26 675.84 523.35&#10;  C 676.93 508.55 659.19 504.65 649.61 511.62&#10;  Z"/>
<path fill="#00a2ff" d="&#10;  M 639.01 515.20&#10;  C 641.56 518.46 647.70 513.01 649.61 511.62&#10;  C 659.19 504.65 676.93 508.55 675.84 523.35&#10;  C 674.82 537.26 659.09 540.64 648.87 533.87&#10;  C 645.50 531.64 641.64 527.70 637.81 530.84&#10;  C 633.34 534.50 628.91 538.75 623.77 542.03&#10;  C 609.40 551.18 590.56 556.23 573.49 554.04&#10;  C 559.01 552.18 540.71 545.88 533.67 531.76&#10;  C 529.32 523.03 530.19 512.60 536.43 504.82&#10;  C 544.33 494.98 555.23 490.21 567.70 488.15&#10;  Q 603.03 482.30 630.01 505.74&#10;  Q 634.96 510.04 639.01 515.20&#10;  Z&#10;  M 555.7235 509.3715&#10;  A 8.15 7.65 -91.1 0 0 548.2314 517.6669&#10;  A 8.15 7.65 -91.1 0 0 556.0365 525.6685&#10;  A 8.15 7.65 -91.1 0 0 563.5286 517.3731&#10;  A 8.15 7.65 -91.1 0 0 555.7235 509.3715&#10;  Z"/>
<ellipse fill="#003788" cx="0.00" cy="0.00" transform="translate(209.40,505.65) rotate(-43.6)" rx="11.81" ry="11.46"/>
<path fill="#f9990c" d="&#10;  M 422.74 513.86&#10;  A 1.23 1.22 64.9 0 1 420.91 513.19&#10;  L 420.86 513.03&#10;  A 2.15 2.14 -27.6 0 1 421.62 510.63&#10;  L 430.90 503.71&#10;  A 0.96 0.96 0.0 0 1 432.43 504.62&#10;  Q 432.01 507.55 430.04 509.03&#10;  Q 429.11 509.73 422.74 513.86&#10;  Z"/>
<ellipse fill="#003788" cx="0.00" cy="0.00" transform="translate(555.88,517.52) rotate(-91.1)" rx="8.15" ry="7.65"/>
<rect fill="#f9990c" x="-7.11" y="-1.77" transform="translate(408.82,521.58) rotate(-33.4)" width="14.22" height="3.54" rx="1.65"/>
<rect fill="#f9990c" x="-6.21" y="-1.75" transform="translate(511.64,522.32) rotate(-27.4)" width="12.42" height="3.50" rx="1.64"/>
<path fill="#003788" d="&#10;  M 383.00 536.34&#10;  L 385.71 537.40&#10;  Q 385.67 537.54 385.65 537.65&#10;  A 0.45 0.44 20.6 0 0 385.87 538.12&#10;  Q 406.85 549.83 423.65 565.34&#10;  Q 426.14 567.64 427.83 570.10&#10;  A 0.63 0.62 55.9 0 0 428.69 570.27&#10;  Q 434.60 566.42 442.31 561.56&#10;  Q 447.55 558.26 452.59 556.61&#10;  C 468.53 551.39 475.22 564.76 469.17 577.88&#10;  Q 467.16 582.27 463.64 587.11&#10;  A 2.65 2.65 0.0 0 0 463.33 589.64&#10;  C 466.22 596.80 467.37 604.93 460.15 610.06&#10;  C 447.99 618.70 431.57 609.96 423.39 600.34&#10;  A 0.43 0.43 0.0 0 0 422.78 600.29&#10;  Q 411.23 609.93 396.51 618.13&#10;  Q 392.17 620.55 389.08 621.87&#10;  C 385.64 623.33 382.80 625.35 379.18 626.85&#10;  Q 370.25 630.54 365.19 632.42&#10;  Q 354.06 636.56 340.27 638.61&#10;  Q 326.30 640.69 314.64 639.31&#10;  Q 297.87 637.33 282.35 630.39&#10;  Q 273.30 626.34 265.97 620.06&#10;  C 257.58 612.86 251.41 605.41 247.71 595.31&#10;  C 242.61 581.35 245.41 566.28 253.91 554.15&#10;  C 256.94 549.82 261.24 544.51 265.61 540.84&#10;  C 289.99 520.38 320.40 514.77 350.78 523.44&#10;  Q 365.83 527.73 383.00 536.34&#10;  Z&#10;  M 457.35 588.88&#10;  Q 457.33 586.80 458.51 585.25&#10;  Q 462.09 580.56 464.43 575.43&#10;  C 466.35 571.21 467.87 562.95 461.89 561.11&#10;  C 457.68 559.82 452.01 562.08 448.05 564.06&#10;  Q 445.97 565.09 433.10 573.84&#10;  C 430.64 575.51 427.15 577.54 424.89 575.10&#10;  C 419.47 569.27 414.14 563.40 407.28 558.48&#10;  Q 393.98 548.93 383.33 542.95&#10;  Q 368.04 534.37 351.99 529.55&#10;  C 319.88 519.89 288.22 525.52 264.15 549.66&#10;  Q 254.03 559.82 250.88 574.37&#10;  C 248.93 583.36 251.84 593.83 256.58 601.40&#10;  C 268.16 619.85 290.34 630.32 311.36 633.32&#10;  Q 319.92 634.54 325.25 634.46&#10;  Q 340.60 634.21 355.86 629.59&#10;  Q 379.63 622.40 399.53 610.23&#10;  Q 411.72 602.77 419.79 596.26&#10;  Q 422.50 594.07 424.76 594.07&#10;  A 1.23 1.22 71.3 0 1 425.74 594.56&#10;  Q 432.64 603.96 443.89 607.66&#10;  Q 448.90 609.30 454.41 607.12&#10;  Q 461.94 604.15 460.02 595.94&#10;  Q 459.76 594.85 457.54 589.78&#10;  A 2.23 2.23 0.0 0 1 457.35 588.88&#10;  Z"/>
<path fill="#fd30b6" d="&#10;  M 457.54 589.78&#10;  Q 459.76 594.85 460.02 595.94&#10;  Q 461.94 604.15 454.41 607.12&#10;  Q 448.90 609.30 443.89 607.66&#10;  Q 432.64 603.96 425.74 594.56&#10;  A 1.23 1.22 71.3 0 0 424.76 594.07&#10;  Q 422.50 594.07 419.79 596.26&#10;  Q 411.72 602.77 399.53 610.23&#10;  Q 379.63 622.40 355.86 629.59&#10;  Q 340.60 634.21 325.25 634.46&#10;  Q 319.92 634.54 311.36 633.32&#10;  C 290.34 630.32 268.16 619.85 256.58 601.40&#10;  C 251.84 593.83 248.93 583.36 250.88 574.37&#10;  Q 254.03 559.82 264.15 549.66&#10;  C 288.22 525.52 319.88 519.89 351.99 529.55&#10;  Q 368.04 534.37 383.33 542.95&#10;  Q 393.98 548.93 407.28 558.48&#10;  C 414.14 563.40 419.47 569.27 424.89 575.10&#10;  C 427.15 577.54 430.64 575.51 433.10 573.84&#10;  Q 445.97 565.09 448.05 564.06&#10;  C 452.01 562.08 457.68 559.82 461.89 561.11&#10;  C 467.87 562.95 466.35 571.21 464.43 575.43&#10;  Q 462.09 580.56 458.51 585.25&#10;  Q 457.33 586.80 457.35 588.88&#10;  A 2.23 2.23 0.0 0 0 457.54 589.78&#10;  Z&#10;  M 293.1510 559.0518&#10;  A 10.38 9.88 -82.8 0 0 282.0479 568.1117&#10;  A 10.38 9.88 -82.8 0 0 290.5490 579.6482&#10;  A 10.38 9.88 -82.8 0 0 301.6521 570.5883&#10;  A 10.38 9.88 -82.8 0 0 293.1510 559.0518&#10;  Z"/>
<path fill="#003788" d="&#10;  M 205.02 525.71&#10;  A 13.55 8.17 22.8 0 1 203.22 525.07&#10;  Q 204.17 525.19 205.02 525.71&#10;  Z"/>
<rect fill="#f9990c" x="-6.49" y="-1.77" transform="translate(491.88,531.29) rotate(-22.7)" width="12.98" height="3.54" rx="1.32"/>
<path fill="#f9990c" d="&#10;  M 385.71 537.40&#10;  L 383.00 536.34&#10;  Q 387.74 531.21 394.42 528.97&#10;  A 1.16 1.16 0.0 0 1 395.94 530.25&#10;  Q 395.68 531.89 394.40 532.67&#10;  Q 390.14 535.25 385.71 537.40&#10;  Z"/>
<rect fill="#f9990c" x="-6.43" y="-1.74" transform="translate(471.95,537.72) rotate(-16.3)" width="12.86" height="3.48" rx="1.64"/>
<rect fill="#f9990c" x="-6.46" y="-1.87" transform="translate(450.61,543.25) rotate(-15.0)" width="12.92" height="3.74" rx="1.79"/>
<rect fill="#f9990c" x="-6.79" y="-1.82" transform="translate(428.98,548.12) rotate(-12.5)" width="13.58" height="3.64" rx="1.74"/>
<ellipse fill="#003788" cx="0.00" cy="0.00" transform="translate(291.85,569.35) rotate(-82.8)" rx="10.38" ry="9.88"/>
<path fill="#003788" d="&#10;  M 634.48 596.12&#10;  Q 635.92 594.56 636.16 593.10&#10;  Q 639.63 586.83 645.85 581.61&#10;  C 668.03 563.01 700.58 565.65 723.24 581.26&#10;  Q 731.82 587.18 737.58 595.59&#10;  A 0.88 0.88 0.0 0 0 738.86 595.78&#10;  Q 741.01 594.02 744.30 592.06&#10;  C 755.41 585.44 768.89 590.71 771.13 603.89&#10;  C 772.84 613.94 765.48 623.08 755.69 625.00&#10;  Q 746.70 626.76 738.85 621.22&#10;  A 0.97 0.97 0.0 0 0 737.58 621.35&#10;  C 720.93 639.09 696.33 648.18 671.99 644.01&#10;  Q 661.11 642.15 652.22 637.04&#10;  C 637.69 628.69 629.81 613.22 634.81 596.67&#10;  A 0.80 0.76 49.3 0 0 634.83 596.28&#10;  Q 634.72 595.67 634.48 596.12&#10;  Z&#10;  M 737.03 601.67&#10;  A 2.28 2.28 0.0 0 1 735.41 600.92&#10;  Q 734.87 600.34 731.99 596.59&#10;  C 719.26 579.95 696.20 572.34 675.78 574.37&#10;  Q 658.77 576.05 646.86 587.39&#10;  C 637.30 596.49 635.81 610.25 642.79 621.40&#10;  Q 646.81 627.83 654.12 632.17&#10;  C 676.85 645.65 706.47 640.27 726.52 624.53&#10;  Q 727.57 623.71 734.59 616.90&#10;  C 736.43 615.13 738.29 614.02 740.40 615.79&#10;  Q 748.07 622.23 756.80 619.12&#10;  C 762.08 617.24 765.36 613.58 765.72 608.01&#10;  Q 766.05 602.93 763.97 599.58&#10;  C 759.61 592.52 751.30 593.55 745.34 597.59&#10;  C 742.36 599.61 739.76 601.76 737.03 601.67&#10;  Z"/>
<path fill="#00a2ff" d="&#10;  M 737.03 601.67&#10;  C 739.76 601.76 742.36 599.61 745.34 597.59&#10;  C 751.30 593.55 759.61 592.52 763.97 599.58&#10;  Q 766.05 602.93 765.72 608.01&#10;  C 765.36 613.58 762.08 617.24 756.80 619.12&#10;  Q 748.07 622.23 740.40 615.79&#10;  C 738.29 614.02 736.43 615.13 734.59 616.90&#10;  Q 727.57 623.71 726.52 624.53&#10;  C 706.47 640.27 676.85 645.65 654.12 632.17&#10;  Q 646.81 627.83 642.79 621.40&#10;  C 635.81 610.25 637.30 596.49 646.86 587.39&#10;  Q 658.77 576.05 675.78 574.37&#10;  C 696.20 572.34 719.26 579.95 731.99 596.59&#10;  Q 734.87 600.34 735.41 600.92&#10;  A 2.28 2.28 0.0 0 0 737.03 601.67&#10;  Z&#10;  M 668.99 600.78&#10;  A 6.84 6.84 0.0 0 0 662.15 593.94&#10;  A 6.84 6.84 0.0 0 0 655.31 600.78&#10;  A 6.84 6.84 0.0 0 0 662.15 607.62&#10;  A 6.84 6.84 0.0 0 0 668.99 600.78&#10;  Z"/>
<rect fill="#f9990c" x="-6.39" y="-1.69" transform="translate(473.34,590.43) rotate(10.7)" width="12.78" height="3.38" rx="1.63"/>
<rect fill="#f9990c" x="-6.42" y="-1.72" transform="translate(496.49,594.70) rotate(10.3)" width="12.84" height="3.44" rx="1.54"/>
<path fill="#f9990c" d="&#10;  M 636.16 593.10&#10;  Q 635.92 594.56 634.48 596.12&#10;  L 627.37 597.73&#10;  A 1.79 1.79 0.0 0 1 625.18 595.98&#10;  L 625.18 595.36&#10;  A 1.63 1.62 -2.1 0 1 626.69 593.74&#10;  L 636.16 593.10&#10;  Z"/>
<circle fill="#003788" cx="662.15" cy="600.78" r="6.84"/>
<rect fill="#f9990c" x="-6.32" y="-1.78" transform="translate(519.02,597.45) rotate(9.6)" width="12.64" height="3.56" rx="1.71"/>
<rect fill="#f9990c" x="-5.94" y="-1.87" transform="translate(610.24,598.27) rotate(-7.5)" width="11.88" height="3.74" rx="1.29"/>
<rect fill="#f9990c" x="-6.30" y="-1.53" transform="translate(542.61,599.84) rotate(4.8)" width="12.60" height="3.06" rx="1.23"/>
<rect fill="#f9990c" x="-6.31" y="-1.55" transform="translate(588.45,599.88) rotate(-3.9)" width="12.62" height="3.10" rx="1.15"/>
<rect fill="#f9990c" x="-6.54" y="-1.50" transform="translate(565.19,600.12) rotate(-0.2)" width="13.08" height="3.00" rx="1.45"/>
<rect fill="#f9990c" x="-7.40" y="-1.69" transform="translate(394.13,628.20) rotate(37.3)" width="14.80" height="3.38" rx="1.59"/>
<path fill="#003788" d="&#10;  M 558.44 676.92&#10;  A 0.63 0.63 0.0 0 0 557.60 677.00&#10;  C 542.48 693.55 521.13 703.38 498.49 703.26&#10;  Q 477.58 703.15 460.68 690.84&#10;  C 442.55 677.62 439.79 653.45 458.34 639.15&#10;  Q 476.10 625.45 500.11 625.53&#10;  Q 517.39 625.59 532.53 632.86&#10;  C 542.60 637.69 550.08 642.44 557.44 650.75&#10;  A 1.56 1.55 49.1 0 0 559.61 650.91&#10;  Q 562.61 648.37 564.06 647.08&#10;  C 578.09 634.52 599.60 646.74 595.61 665.30&#10;  C 592.53 679.61 574.63 687.25 562.41 679.59&#10;  Q 559.75 677.92 558.44 676.92&#10;  Z&#10;  M 559.40 671.59&#10;  C 561.58 672.66 564.55 675.32 567.60 676.54&#10;  C 575.45 679.66 584.90 675.61 588.77 668.57&#10;  C 594.17 658.74 588.41 646.99 576.71 647.26&#10;  C 570.65 647.40 566.88 651.23 562.34 655.07&#10;  Q 560.54 656.59 558.69 657.11&#10;  A 3.10 3.09 -31.2 0 1 555.74 656.39&#10;  Q 553.14 653.97 550.95 651.74&#10;  C 541.13 641.75 527.55 635.03 514.99 632.37&#10;  Q 494.44 628.01 473.29 636.03&#10;  C 463.05 639.91 451.57 649.60 450.97 661.42&#10;  C 450.19 676.87 460.98 686.57 473.99 692.72&#10;  Q 478.93 695.06 483.71 696.07&#10;  C 507.45 701.13 532.16 694.05 550.10 677.84&#10;  Q 552.48 675.70 556.20 672.09&#10;  A 2.81 2.80 36.0 0 1 559.40 671.59&#10;  Z"/>
<path fill="#00a2ff" d="&#10;  M 559.40 671.59&#10;  A 2.81 2.80 36.0 0 0 556.20 672.09&#10;  Q 552.48 675.70 550.10 677.84&#10;  C 532.16 694.05 507.45 701.13 483.71 696.07&#10;  Q 478.93 695.06 473.99 692.72&#10;  C 460.98 686.57 450.19 676.87 450.97 661.42&#10;  C 451.57 649.60 463.05 639.91 473.29 636.03&#10;  Q 494.44 628.01 514.99 632.37&#10;  C 527.55 635.03 541.13 641.75 550.95 651.74&#10;  Q 553.14 653.97 555.74 656.39&#10;  A 3.10 3.09 -31.2 0 0 558.69 657.11&#10;  Q 560.54 656.59 562.34 655.07&#10;  C 566.88 651.23 570.65 647.40 576.71 647.26&#10;  C 588.41 646.99 594.17 658.74 588.77 668.57&#10;  C 584.90 675.61 575.45 679.66 567.60 676.54&#10;  C 564.55 675.32 561.58 672.66 559.40 671.59&#10;  Z&#10;  M 477.1103 652.6744&#10;  A 8.20 7.76 -81.3 0 0 468.1993 659.6062&#10;  A 8.20 7.76 -81.3 0 0 474.6297 668.8856&#10;  A 8.20 7.76 -81.3 0 0 483.5407 661.9538&#10;  A 8.20 7.76 -81.3 0 0 477.1103 652.6744&#10;  Z"/>
<rect fill="#f9990c" x="-6.70" y="-1.85" transform="translate(410.85,641.20) rotate(35.3)" width="13.40" height="3.70" rx="1.79"/>
<rect fill="#f9990c" x="-6.90" y="-1.77" transform="translate(428.19,653.21) rotate(36.7)" width="13.80" height="3.54" rx="1.71"/>
<ellipse fill="#003788" cx="0.00" cy="0.00" transform="translate(475.87,660.78) rotate(-81.3)" rx="8.20" ry="7.76"/>
<path fill="#00a2ff" d="&#10;  M 276.74 723.25&#10;  Q 303.77 730.28 336.21 736.38&#10;  A 1.87 1.87 0.0 0 1 337.74 738.18&#10;  C 337.99 752.01 340.03 766.64 341.32 780.44&#10;  A 0.91 0.91 0.0 0 1 340.50 781.43&#10;  Q 339.45 781.54 338.32 781.37&#10;  Q 305.91 776.39 288.43 750.17&#10;  C 282.70 741.57 278.70 733.48 276.32 723.66&#10;  A 0.34 0.34 0.0 0 1 276.74 723.25&#10;  Z"/>
</svg>